<?xml version="1.0" encoding="UTF-8"?>
<svg id="Capa_2" data-name="Capa 2" xmlns="http://www.w3.org/2000/svg" viewBox="0 0 273.01 273.01">
  <defs>
    <style>
      .ELS-imago-cls-1 {
        fill: #fff;
      }

      .ELS-imago-cls-2 {
        fill: #7ef3e2;
      }

      .ELS-imago-cls-3 {
        fill: #15191d;
      }

      .ELS-imago-cls-4 {
        fill: #010000;
      }
    </style>
  </defs>
  <g id="Capa_1-2" data-name="Capa 1">
    <path class="ELS-imago-cls-2" d="M256.68,8.53H16.34c-4.3,0-7.8,3.5-7.8,7.81v240.34c0,4.3,3.5,7.81,7.8,7.81h240.34c4.3,0,7.8-3.5,7.8-7.81V16.34c0-4.3-3.5-7.81-7.8-7.81ZM102.23,234.79s-.08-.03-.13-.04l.26.04s-.09,0-.14,0ZM254.16,175.57c-2.9,12.61-11.34,23.61-22.94,29.36.03.52.09,1.05.12,1.57.24,4.37.75,9.16-.53,13.41-.68,2.25-1.77,4.33-3.53,5.93-1.73,1.57-3.82,2.62-6.04,3.3-2.38.73-4.86,1.14-7.3,1.6-2.58.49-5.16.93-7.75,1.35-20.78,3.31-41.85,4.32-62.87,4.16-11.77-.09-23.53-.57-35.28-1.19l-22.99-1.35c-1.73-.11-3.46-.2-5.18-.32-4.29-.28-8.67-.47-12.79-1.82-4.29-1.41-8.16-3.98-10.36-8.03-2.29-4.2-2.91-8.92-2.39-13.64.05-.44.16-.86.22-1.29-1.19.72-2.47,1.3-3.78,1.64-4.87,1.26-10.08.21-14.34-2.39-4.32-2.63-7.64-6.54-10.18-10.87-2.53-4.31-4.58-8.97-6.03-13.76-2.94-9.76-3.47-20.38.05-30.06,1.53-4.22,4.11-8.24,7.79-10.89,2.3-1.66,5-2.58,7.77-2.81-.88-6.8-.49-13.81,1.09-20.48,2.94-12.38,9.84-23.5,19.73-31.51,8.92-7.23,20.11-11.68,31.55-12.65-.13-8.89,4.02-17.58,10.98-23.15,1.94-1.55,4.97.62,4.38,2.93-1.06,4.15-.65,8.31,1.15,12.05,1.33-1.54,2.67-3.07,3.99-4.63,7.6-9.03,14.84-18.35,21.72-27.94,1.1-1.54,3.52-1.09,4.5.28,5.27,7.43,6.29,17.2,3.34,25.64.68-.31,1.37-.61,2.05-.93,1.38-.66,2.14-1.05,3.52-1.77,1.29-.68,2.56-1.38,3.83-2.11,2.53-1.45,5-2.99,7.42-4.61,2.42-1.62,4.78-3.33,7.08-5.12,1.15-.89,2.28-1.81,3.4-2.74,1.1-.92,2.1-1.79,2.99-2.59,1.07-.96,2.85-1.45,4.01-.27,2.51,2.56,4.46,5.56,5.7,8.92,2.08,5.66,1.96,11.9-.28,17.47,6.98,1.03,13.8,3.21,20.06,6.45,13.49,7,24.33,18.57,30.05,32.69,5.33,13.16,6.1,27.96,2.39,41.61,2.17-1.12,4.53-1.89,7.12-2.12,3.7-.33,7.39.56,10.43,2.72,2.84,2.02,4.72,5.24,5.77,8.51,1.98,6.19,1.84,13.17.4,19.45Z"/>
    <path class="ELS-imago-cls-3" d="M256.68,0H16.34C7.33,0,0,7.33,0,16.34v240.34c0,9.01,7.33,16.34,16.34,16.34h240.34c9.01,0,16.34-7.33,16.34-16.34V16.34c0-9.01-7.33-16.34-16.34-16.34ZM264.48,256.68c0,4.3-3.5,7.81-7.8,7.81H16.34c-4.3,0-7.8-3.5-7.8-7.81V16.34c0-4.3,3.5-7.81,7.8-7.81h240.34c4.3,0,7.8,3.5,7.8,7.81v240.34Z"/>
    <path class="ELS-imago-cls-1" d="M249.05,160.62c-.03-.19-.04-.42-.11-.6,0,0,0,0,0,0,0-.02-.01-.04-.02-.06-.08-.37-.17-.73-.27-1.09-.19-.69-.41-1.36-.67-2.03-.16-.4-.34-.79-.51-1.18-.09-.17-.19-.34-.28-.51-.37-.63-.79-1.21-1.24-1.79-.01-.02,0,0-.02-.02-.02-.02,0,0-.03-.03-.14-.14-.28-.28-.42-.42-.24-.23-.49-.45-.75-.65-.12-.09-.33-.32-.48-.36.33.22.37.25.11.08-.06-.03-.11-.07-.17-.1-.28-.17-.56-.32-.85-.46-.27-.13-.76-.46-1.07-.45.39.13.44.15.15.06-.06-.02-.12-.04-.19-.06-.19-.05-.37-.1-.56-.15-.32-.07-.63-.14-.95-.19-.19-.03-.39-.06-.58-.08-.07,0-.68-.13-.21-.03.47.1-.29,0-.41,0-.2,0-.39,0-.59,0-.33,0-.66.03-.99.06-.4.04-.79.09-1.18.15-.13.02-.27.06-.39.07.08,0,.1,0,.15-.01.19-.02.31-.02,0,0-.07,0-.14.02-.19.03-.78.19-1.54.43-2.28.73-.31.12-.61.26-.91.4-.02,0-.02,0-.03.01-.01,0-.02,0-.03.02-.13.07-.25.14-.38.21-.75.42-1.47.89-2.17,1.4-.29.21-.57.43-.85.65-.17.13-.33.27-.5.41-.06.05-.29.23-.34.26.02-.02.1-.07.24-.18-1.24.93-2.3,2.27-3.28,3.45-.73.87-1.38,1.8-2.05,2.71.65,2.34,1.25,4.68,1.82,7.04.33-.52.7-1.02,1.09-1.51.76-.94,1.66-1.77,2.6-2.52.39-.31.8-.6,1.23-.86.61-.38,1.26-.71,1.93-.97.23-.09.47-.17.71-.23.47-.12.95-.23,1.44-.28.23-.03.47-.04.71-.02.46.02.94.03,1.39.15.34.09.67.21,1,.34.1.04.2.08.29.13.31.16.6.37.88.58.09.07.18.13.27.21.26.24.49.52.72.79.07.09.14.17.21.27.28.39.48.85.68,1.28.21.46.35.95.45,1.44.16.78.32,1.56.4,2.35.14,1.35.09,2.7-.04,4.05-.1,1.12-.32,2.23-.65,3.31-.39,1.29-.87,2.57-1.51,3.76-.36.67-.91,1.14-1.61,1.42-.71.28-1.52.16-2.21-.14-.34-.16-.62-.38-.84-.68-.27-.26-.46-.57-.57-.93-.14-.37-.19-.75-.13-1.13,0-.38.08-.74.27-1.08.36-.68.66-1.38.92-2.1.38-1.18.62-2.39.74-3.62.05-1.18-.02-2.37-.22-3.54-.08-.36-.19-.7-.33-1.04-.02-.03-.04-.06-.06-.09,0,0,0,0,0,0-.13,0-.26.01-.38.03-.35.1-.7.22-1.03.37-.59.34-1.15.73-1.67,1.17-.67.62-1.26,1.31-1.79,2.05-.48.75-.87,1.55-1.19,2.38-.16.51-.31,1.02-.41,1.54-.14.74-.6,1.35-1.19,1.78-.04.03-.1.03-.15.06,1,4.98,1.83,9.99,2.47,15.03.3,2.38.56,4.77.78,7.16.72-.42,1.42-.85,2.11-1.32,1.33-.89,2.59-1.87,3.8-2.92h0s0,0,.03-.03c.14-.13.28-.26.42-.39.28-.26.56-.53.83-.8.59-.58,1.17-1.19,1.72-1.81,1.07-1.19,2.07-2.45,2.99-3.76.12-.17.23-.33.35-.5,0,0,0,0,0-.01.21-.32.42-.65.62-.97.34-.55.66-1.1.97-1.66.72-1.29,1.37-2.62,1.95-3.97.28-.65.54-1.31.78-1.97.06-.17.17-.37.2-.54,0-.01,0-.02,0-.03.1-.3.2-.61.29-.92.43-1.41.79-2.84,1.06-4.29.26-1.39.44-2.78.56-4.18,0-.04,0-.02,0-.05,0-.05,0-.1,0-.15,0-.13.01-.26.02-.38.02-.38.03-.77.03-1.15,0-.64,0-1.28-.02-1.92-.06-1.5-.2-2.99-.46-4.47Z"/>
    <path class="ELS-imago-cls-1" d="M69.33,139.68c1.38.62,1.97,2.5,1.28,3.82-1.63,3.07-3.11,6.21-4.45,9.41-2.01,4.84-3.56,9.57-4.85,14.66,6.19-11.93,13.61-23.24,22.14-33.63-1.02.11-2.09-.15-2.6-1.14-.57-1.1-1.25-2.13-2.04-3.08-.07-.08-.31-.34-.35-.39-.24-.24-.48-.48-.73-.71-.47-.42-.96-.82-1.47-1.19-1.61-1.18-1-3.44.28-4.5,4.85-4.02,9.76-7.99,15.12-11.32,4.72-2.93,9.83-5.45,15.27-6.73,5.98-1.4,12.01-1.3,17.98.15,6.13,1.49,12.04,3.89,17.59,6.96l-5.99-8.88c-.73-1.08-.58-2.48.22-3.47.84-1.05,2.26-1.11,3.41-.67,7.62,2.87,14.68,7.23,20.73,12.7-.18-3.53-.89-7.05-2.25-10.42-.43-1.06,0-2.33.82-3.05.91-.8,2.06-.87,3.14-.43,3.77,1.54,7.49,3.19,11.17,4.96,13.14,6.31,25.6,14.04,37.13,22.95.81.63,1.06,1.65.89,2.6.81,1.74,1.6,3.48,2.36,5.24,2.92,6.75,5.47,13.66,7.67,20.68.47-.55.96-1.08,1.46-1.61-.14-.65-.1-1.36.14-2,.2-.53.4-1.05.59-1.59.03-.1.17-.51.17-.5.06-.19.12-.38.18-.56.33-1.03.63-2.08.9-3.13.54-2.1.97-4.23,1.28-6.37.16-1.07.29-2.15.39-3.23.03-.29.05-.59.08-.88,0-.03.01-.14.02-.22.03-.51.06-1.02.08-1.53.08-2.12.06-4.24-.07-6.36-.12-1.92-.32-3.83-.62-5.74-.12-.81-.34-2.03-.46-2.61-.02-.1-.13-.62-.12-.56-.04-.19-.09-.39-.13-.58-.11-.48-.23-.96-.35-1.44-.93-3.68-2.2-7.27-3.8-10.71-.53-1.14-.64-1.37-1.19-2.38-.42-.78-.85-1.56-1.31-2.32-.89-1.49-1.84-2.94-2.86-4.35-1.02-1.41-2.1-2.77-3.24-4.09-.06-.07-.12-.14-.18-.2-.02-.03-.05-.06-.14-.15-.12-.13-.24-.26-.36-.4-.3-.33-.61-.65-.92-.98-.56-.58-1.12-1.15-1.7-1.71-2.51-2.42-5.23-4.6-8.09-6.59-.1-.07-.12-.08-.14-.1-.03-.02-.05-.03-.15-.1-.15-.1-.3-.2-.45-.29-.37-.24-.75-.48-1.13-.72-.68-.42-1.38-.83-2.07-1.23-1.48-.84-2.99-1.62-4.52-2.34-1.62-.75-3.27-1.44-4.95-2.05-.24-.09-.48-.18-.73-.26-.04-.01-.04-.01-.09-.03-.42-.14-.85-.28-1.27-.41-.77-.24-1.54-.46-2.31-.67-2.87-.77-5.8-1.29-8.75-1.63-2.38,3.19-5.52,5.79-9.12,7.59-1.43.71-3.11-.47-3.62-1.75-.62-1.55.42-2.96,1.75-3.62-.46.23.08-.05.16-.1.15-.08.31-.17.46-.26.27-.16.53-.32.79-.48.59-.38,1.17-.79,1.72-1.23.09-.07.52-.44.56-.47.19-.18.39-.36.58-.54.5-.49.98-1.01,1.44-1.55.4-.47.77-.96,1.13-1.47.02-.03.13-.19.19-.27.03-.05.07-.1.07-.11.14-.23.28-.45.41-.68.62-1.07,1.14-2.19,1.58-3.34.03-.07.03-.08.05-.11,0,0,0,0,.02-.06.04-.13.08-.25.12-.38.08-.25.15-.51.22-.76.16-.6.29-1.2.39-1.81.06-.37.11-.74.15-1.11.01-.09.03-.36.04-.46.03-.57.04-1.14.02-1.71-.02-.7-.07-1.39-.16-2.08-.04-.28-.08-.55-.12-.83-.02-.15-.05-.29-.08-.44,0-.02,0-.02-.01-.05-.3-1.27-.68-2.51-1.19-3.72-.13-.3-.26-.6-.4-.89-.03-.06-.04-.08-.06-.12-.06-.11-.12-.23-.18-.34-.29-.53-.6-1.05-.93-1.55-.19-.28-.4-.55-.6-.82-1.88,1.62-3.78,3.21-5.75,4.73-9.61,7.36-20.31,13.3-31.6,17.65-1.21.47-2.56-.1-3.29-1.09-.78-1.06-.53-2.49.22-3.47.77-1.02,1.1-1.51,1.8-2.88.28-.53.53-1.08.77-1.63.13-.32.26-.64.38-.96.04-.1.07-.2.11-.29,0-.02.03-.08.07-.23.34-1.16.65-2.32.85-3.51.11-.68.19-1.37.26-2.05,0-.07.01-.11.02-.15,0-.03,0-.06,0-.12.01-.35.03-.69.03-1.03.02-1.29-.06-2.59-.24-3.87-.04-.26-.07-.51-.12-.77-.01-.08-.12-.58-.13-.69-.12-.53-.25-1.06-.4-1.58-.29-1-.67-1.96-1.08-2.9-1.15,1.58-2.3,3.17-3.47,4.73-7.08,9.44-14.54,18.6-22.33,27.46-1.26,1.44-3.39,1.17-4.5-.28-2.46-3.23-3.97-7.14-4.46-11.17-.22.36-.44.72-.64,1.09-.5.91-.95,1.84-1.34,2.8-.1.25-.2.5-.3.75,0,.02-.13.37-.16.46-.15.47-.29.94-.42,1.42-.26,1-.47,2.01-.61,3.04-.06.44-.11.88-.15,1.33,0,.12-.03.39-.03.46-.01.27-.02.54-.02.81,0,1.08.06,2.16.18,3.23.18,1.49-1.17,2.98-2.65,3.03-1.66.06-3.32.18-4.97.39-.8.1-1.6.22-2.4.36-.28.05-.56.1-.84.15,0,0-.08.01-.15.03-.1.02-.46.09-.5.1-.19.04-.37.08-.56.12-3.15.72-6.24,1.71-9.22,2.96-.7.29-1.4.6-2.09.93-.31.14-.61.29-.92.44-.06.03-.52.26-.59.3-1.31.68-2.59,1.42-3.84,2.2-2.46,1.54-4.8,3.27-6.98,5.18-.05.04-.06.05-.06.05-.02.02-.06.05-.14.13-.14.13-.28.26-.42.39-.24.23-.49.45-.73.69-.51.49-1.02,1-1.51,1.51-1.02,1.07-2,2.17-2.93,3.32-1.94,2.4-3.16,4.2-4.66,6.87-1.45,2.59-2.69,5.29-3.71,8.08-.06.15-.11.31-.17.46-.03.07-.06.17-.07.19-.12.36-.24.73-.36,1.09-.2.64-.39,1.28-.57,1.93-.39,1.43-.73,2.88-1.01,4.33-.28,1.46-.5,2.92-.67,4.4-.18,1.66-.22,2.14-.26,3.82-.08,2.97.09,5.93.5,8.87.02.12-.03.23-.04.35.02,0,.05,0,.07.02,4.93,1.35,8.96,4.38,12.19,8.27,2.01,2.42,3.63,5.13,5.1,7.91,1.85-5.23,4.07-10.32,6.66-15.21.74-1.41,2.38-1.92,3.82-1.28Z"/>
    <path class="ELS-imago-cls-1" d="M181.7,218.15s0,0,.01-.05c.09-.29.18-.57.25-.86.18-.66.32-1.33.42-2,.05-.34.09-.68.13-1.02,0-.01,0-.05,0-.09,0-.1.01-.27.01-.31.04-1.33-.07-2.66-.31-3.96-.02-.07-.03-.16-.05-.23-.04-.17-.08-.34-.13-.51-.08-.3-.16-.59-.26-.88-.2-.63-.43-1.24-.69-1.85-.09-.2-.18-.4-.27-.6-.01-.03-.05-.1-.07-.16-.12-.24-.25-.47-.38-.7-.33-.57-.68-1.12-1.06-1.66-.2-.29-.41-.57-.63-.84-.05-.06-.37-.44-.44-.54-.42-.46-.85-.9-1.31-1.31-.46-.41-.94-.79-1.43-1.16-4.32,3.61-8.98,6.7-14.05,9.23-10.01,4.99-21.32,7.52-32.51,7.17-10.89-.34-21.65-3.16-31.25-8.33-.39.39-.78.78-1.13,1.2-.19.23-.38.47-.56.71-.08.11-.16.22-.23.33,0,.01,0,.01-.02.03-.34.56-.66,1.12-.94,1.71-.13.27-.25.55-.37.83-.03.08-.15.4-.2.51-.03.12-.13.43-.16.52-.07.25-.14.5-.19.76-.13.55-.23,1.1-.3,1.66-.01.12-.04.4-.05.44,0,.2-.02.41-.02.61,0,.56.03,1.13.09,1.68.03.26.08.52.11.77,0,.02,0,.02,0,.04.03.12.05.24.08.35.14.54.3,1.07.5,1.59.09.24.19.48.29.71.03.08.18.38.22.48.05.09.11.21.13.23.06.11.13.22.19.33.13.22.27.44.41.65.28.43.58.84.91,1.24.09.11.18.22.27.32,0,0,0,0,0,0,.18.19.35.37.54.55.37.36.75.7,1.15,1.02.23.19.47.37.71.55.05.04.06.05.1.07.09.05.17.11.26.16.44.27.88.52,1.34.74.46.23.94.43,1.42.6.09.03.3.09.39.12.19.05.37.1.56.14,16.15.9,32.31,1.54,48.49,1.4,6.38-.06,12.76-.25,19.13-.59.31-.75.92-1.39,1.68-1.72.24-.1.47-.21.7-.31.02,0,.06-.03.09-.05.28-.15.56-.3.83-.46.66-.39,1.3-.83,1.9-1.3.23-.18.46-.36.68-.55.07-.06.2-.18.24-.21.12-.12.25-.24.37-.36.52-.51,1.01-1.05,1.46-1.62.24-.3.48-.6.7-.92.02-.03.12-.16.18-.25.03-.05.06-.1.07-.11.34-.54.67-1.1.96-1.67.31-.61.59-1.23.84-1.87.06-.15.12-.31.17-.46Z"/>
    <path class="ELS-imago-cls-1" d="M220.22,169.79c-1.13-4.67-2.42-9.31-3.86-13.9-2.89-9.19-6.41-18.17-10.52-26.88-2.78-2.12-5.61-4.18-8.5-6.15-.83-.57-1.19-.81-2.03-1.36-.71-.47-1.42-.93-2.13-1.39-1.51-.97-3.04-1.92-4.58-2.86-3.03-1.84-6.11-3.59-9.23-5.27-4.44-2.39-9-4.54-13.6-6.59.93,4.38,1.07,8.92.42,13.38-.29,1.98-3.23,3.14-4.66,1.57-4.35-4.78-9.15-8.67-14.51-11.79l8.58,12.71c1.83,2.71-1.79,5.82-4.23,3.74-1.16-.99-2.34-1.94-3.56-2.85-1.21-.91-2.35-1.71-3.38-2.38-2.51-1.63-5.11-3.1-7.8-4.41-2.41-1.18-4.89-2.21-7.42-3.12-.05-.02-.21-.07-.25-.09-.12-.04-.23-.08-.35-.12-.29-.1-.58-.19-.88-.29-.68-.22-1.37-.43-2.06-.62-1.38-.39-2.78-.73-4.19-1-2.86-.54-5.15-.73-8.03-.53-1.28.09-2.56.26-3.82.49-.06.01-.06,0-.08.01-.02,0,0,0-.04,0-.14.03-.29.06-.43.09-.34.08-.67.16-1,.24-.57.15-1.14.31-1.7.48-5.2,1.59-9.33,3.88-13.85,6.91-3.48,2.33-6.77,4.93-10.01,7.57.61.64,1.18,1.32,1.7,2.04,3.32-1.81,6.64-3.61,9.96-5.42,1.27-.69,2.72-.64,3.71.49.89,1.01,1.01,2.72.03,3.74-3.85,4-7.53,8.16-11.02,12.48-6.23,7.72-11.45,15.31-16.38,23.84-4.9,8.48-9.14,17.33-12.68,26.47-.99,2.54-5.55,1.72-5.38-1.08.18-2.94.47-5.87.86-8.79-.03-.01-.07-.01-.09-.02-.59-.29-1.25-.95-1.42-1.61-.44-1.72-1.04-3.39-1.81-4.99-.62-1.18-1.35-2.3-2.22-3.32-.65-.69-1.36-1.33-2.13-1.88-.58-.36-1.19-.67-1.83-.92-.72-.22-1.46-.37-2.22-.45-.72-.02-1.44.02-2.16.14-.53.13-1.04.31-1.54.53-.42.23-.81.5-1.19.8-.27.27-.52.55-.75.86-.24.39-.44.8-.61,1.23-.15.52-.25,1.05-.31,1.59-.02.76.03,1.52.16,2.27.23.96.56,1.88.98,2.78,1.13,2.12,2.64,4,4.22,5.79-.14-.15-.27-.31-.41-.46.37.33.64.72.8,1.19l.15.75c.08.75-.24,1.49-.7,2.06-.44.55-1.26.92-1.95.96-.64.04-1.61-.19-2.06-.7-.45-.51-.9-1.02-1.34-1.53-1.19-1.4-2.33-2.87-3.23-4.48-.56-.99-1.07-2.03-1.46-3.1-.36-1.01-.59-2.08-.75-3.14-.29-1.99-.1-4.04.56-5.93.38-1.1.89-2.03,1.58-2.98.54-.74,1.22-1.36,1.93-1.93.71-.56,1.51-.98,2.33-1.36.63-.29,1.3-.51,1.98-.66.91-.2,1.82-.36,2.76-.39.95-.02,1.91.04,2.84.2.93.15,1.8.44,2.68.75.68.24,1.33.55,1.95.93.87.53,1.71,1.12,2.48,1.8.77.68,1.47,1.46,2.12,2.25.91,1.11,1.63,2.36,2.28,3.64.45-2.06.98-4.11,1.55-6.15-.22-.26-.42-.55-.57-.85-.17-.34-.33-.67-.5-1.01-.05-.09-.07-.15-.1-.19-.02-.04-.04-.08-.08-.16-.3-.59-.6-1.18-.9-1.76-.57-1.08-1.16-2.16-1.78-3.21-.62-1.05-1.27-2.07-1.98-3.07-.32-.46-.66-.9-1-1.34-.23-.29-.47-.58-.71-.87-.06-.07-.1-.12-.13-.16-.03-.04-.07-.07-.13-.14-.8-.86-1.63-1.67-2.54-2.41-.27-.22-.54-.43-.82-.63-.03-.02-.27-.18-.37-.25-.4-.26-.8-.5-1.22-.73-.53-.29-1.07-.55-1.63-.79-.3-.13-.61-.25-.92-.36-.03,0-.03-.01-.07-.02-1.08-.33-2.17-.54-3.29-.66-.14,0-.29,0-.43,0-.25,0-.5,0-.75.02-.47.02-.94.09-1.41.16-.08.01-.16.03-.21.04-.21.05-.41.11-.61.17-.47.14-.93.31-1.37.51-.09.04-.18.08-.27.13-.03.02-.04.03-.14.08-.17.1-.34.2-.51.3-.37.23-.73.48-1.08.74-.19.14-.37.3-.56.45-.06.05-.05.04-.08.06-.03.03-.02.03-.09.1-.28.29-.57.57-.84.86-.38.42-.74.86-1.08,1.31-.1.14-.2.28-.3.41,0,0-.24.35-.27.4-.48.77-.92,1.57-1.32,2.39-.42.86-.78,1.75-1.1,2.66-.04.13-.1.3-.11.33-.08.26-.16.52-.24.78-.13.46-.26.92-.37,1.39-1.14,4.56-1.35,8.21-.96,12.86.09,1.15.23,2.29.41,3.43.09.57.18,1.14.29,1.71,0,.01.11.52.11.56.05.23.1.45.15.68.49,2.17,1.12,4.3,1.86,6.4.76,2.14,1.63,4.24,2.61,6.28.13.26.25.53.39.79.05.09.22.43.23.45.26.49.52.98.79,1.47.5.89,1.02,1.76,1.58,2.61.61.93,1.25,1.83,1.95,2.69.17.22.35.43.53.64.06.07.09.11.12.15.03.03.07.07.13.13.32.33.63.67.96.99.85.83,1.76,1.58,2.71,2.27.02.01.07.05.12.08.21.13.42.27.63.39.46.27.94.53,1.42.76.48.23.98.44,1.47.64.08.03.12.05.17.07.04.01.08.02.15.04.26.08.51.15.77.22.51.14,1.03.25,1.56.33.17.03.35.05.52.08.04,0,.3.03.44.05.95.05,1.9-.02,2.85-.16.12-.02.31-.06.36-.07.23-.06.45-.12.67-.2.45-.14.87-.33,1.31-.51.07-.03.06-.02.1-.04.02-.02.02-.02.08-.06.2-.12.41-.23.61-.36.4-.25.78-.52,1.14-.81.07-.05.42-.39.33-.29.08-.08.17-.16.25-.24.3-.3.58-.62.84-.96.09-.11.6-.93.26-.34.12-.2.24-.39.35-.59.18-.34.33-.69.49-1.03.02-.04.03-.06.04-.08,0-.03,0-.04.02-.08.06-.22.12-.44.17-.67.1-.45.16-.91.19-1.37.11-1.5,1.79-2.3,3.12-2.21.67-1.31,2.45-1.67,3.7-1.11,1.48.66,1.83,2.44,1.28,3.82-.83,2.08-1.71,4.28-2.32,6.19-.71,2.22-1.29,4.48-1.56,6.8-.01.09-.09.9-.09.9,0,.19-.02.38-.02.56-.01.51-.01,1.03,0,1.54.04.94.15,1.87.3,2.79.01.06.01.06.02.1.04.17.08.35.12.52.05.18.09.36.15.54.14.49.3.97.48,1.45.08.22.17.43.26.64,0,.02.17.36.21.45.19.36.4.72.62,1.07.28.43.58.84.91,1.23.08.08.32.36.33.37.13.13.26.26.39.38.39.36.81.68,1.23,1.01.03.02.1.07.15.11.19.12.37.24.56.35.84.49,1.72.87,2.61,1.23.07.03.11.05.16.06.04.01.08.02.15.04.21.06.43.13.64.19.47.14.95.26,1.43.37,1.95.44,3.95.69,5.94.86.54.05,1.09.09,1.63.13.03,0,.03,0,.05,0,.32.02.64.04.96.06,1.22.08,2.45.16,3.67.24,2.51.16,5.02.32,7.52.48.61.04,1.22.07,1.82.11-2.95-3.56-4.53-8.08-4.21-12.77.38-5.56,3.3-10.8,7.87-14.01.79-.56,2.01-.68,2.86-.19,2.67,1.53,5.44,2.88,8.3,4.03,2.74,1.1,5.19,1.89,8.23,2.64,2.64.65,5.32,1.15,8.01,1.48.66.08,1.32.15,1.99.22.36.03.72.06,1.07.09,0,0,.13,0,.23.02.09,0,.25.02.24.02,1.33.08,2.66.12,4,.12,2.71,0,5.42-.17,8.1-.51,1.29-.16,2.58-.37,3.87-.61.2-.04.39-.07.59-.11.34-.07.68-.15,1.02-.22.59-.13,1.17-.27,1.76-.42,2.58-.65,5.12-1.46,7.6-2.42,1.22-.47,2.42-.97,3.61-1.51.64-.29,1.27-.59,1.91-.9,0,0,.13-.07.21-.11.08-.04.21-.11.2-.1.31-.16.62-.32.93-.49,2.3-1.23,4.54-2.59,6.68-4.07,1.11-.77,2.2-1.58,3.27-2.42.51-.4,1.02-.82,1.52-1.23.27-.23.54-.45.8-.68,0,0,.11-.1.18-.15.07-.06.19-.17.18-.16.92-.83,2.21-1.34,3.41-.67,3.26,1.82,6.05,4.42,8.05,7.57,3.48,5.5,4.66,12.44,2.56,18.66-1.27,3.76-3.41,7.08-6.23,9.72,10.58-.84,21.12-2.14,31.57-4.07,1.22-.23,2.44-.46,3.65-.7.13-.03.45-.09.47-.1.27-.06.55-.12.82-.18.46-.11.91-.22,1.36-.35.95-.27,1.88-.59,2.77-1.01.12-.07.38-.2.4-.21.16-.09.31-.19.46-.28.23-.15.44-.32.66-.47.11-.07.12-.08.16-.1.03-.03.03-.04.12-.13.36-.36.69-.74.99-1.16.03-.04.06-.09.07-.11.12-.23.25-.45.37-.69.11-.23.21-.47.31-.71.01-.02.03-.07.04-.12.14-.43.26-.88.35-1.32.12-.57.21-1.14.27-1.72.02-.18.04-.36.05-.54,0-.08.01-.11.02-.16,0-.05,0-.09,0-.17.03-.91.04-1.81.02-2.72-.21-9.65-1.25-19.32-2.86-28.83-.81-4.78-1.67-8.96-2.81-13.71ZM108.35,181.76l-.61.91c-.5.56-1.1.97-1.81,1.22-.37.08-.75.15-1.12.23-.58.06-1.14-.02-1.66-.26-.54-.14-1.02-.4-1.43-.79-.44-.36-.76-.8-.97-1.31-.3-.49-.46-1.03-.48-1.62l-.16-3.67c-.2-4.37-.39-8.74-.59-13.11-.05-.77.1-1.5.44-2.19l.61-.91c.5-.56,1.1-.97,1.81-1.22.37-.08.75-.15,1.12-.23.58-.06,1.14.02,1.67.26.54.14,1.01.4,1.43.79.44.36.76.8.97,1.31.3.49.46,1.03.48,1.62l.16,3.67c.19,4.37.39,8.74.58,13.11.05.77-.1,1.5-.44,2.19ZM189.61,182.08l-.61.91c-.5.56-1.1.97-1.81,1.22-.37.08-.75.15-1.12.23-.58.06-1.14-.02-1.66-.26-.54-.14-1.02-.4-1.43-.79-.44-.36-.76-.8-.97-1.31-.3-.49-.46-1.03-.48-1.62l-.16-3.67c-.2-4.37-.39-8.74-.59-13.11-.05-.77.1-1.5.44-2.19l.61-.91c.5-.56,1.1-.97,1.81-1.22.37-.08.75-.15,1.12-.23.58-.06,1.14.02,1.67.26.54.14,1.01.4,1.43.79.44.36.76.8.97,1.31.3.49.46,1.03.48,1.62l.16,3.67c.19,4.37.39,8.74.58,13.11.05.77-.1,1.5-.44,2.19Z"/>
    <path class="ELS-imago-cls-4" d="M189.29,163.11c-.02-.59-.17-1.13-.48-1.62-.21-.52-.53-.95-.97-1.31-.41-.39-.89-.65-1.43-.79-.53-.23-1.08-.32-1.67-.26-.37.08-.75.15-1.12.23-.71.25-1.31.66-1.81,1.22l-.61.91c-.34.69-.49,1.42-.44,2.19.2,4.37.39,8.74.59,13.11l.16,3.67c.02.59.18,1.13.48,1.62.21.52.53.95.97,1.31.41.39.89.65,1.43.79.53.23,1.08.32,1.66.26.37-.08.75-.15,1.12-.23.71-.25,1.31-.66,1.81-1.22l.61-.91c.34-.69.49-1.42.44-2.19-.2-4.37-.39-8.74-.58-13.11l-.16-3.67Z"/>
    <path class="ELS-imago-cls-4" d="M108.04,162.79c-.02-.59-.17-1.13-.48-1.62-.21-.52-.53-.95-.97-1.31-.41-.39-.89-.65-1.43-.79-.53-.23-1.08-.32-1.67-.26-.37.08-.75.15-1.12.23-.71.25-1.31.66-1.81,1.22l-.61.91c-.34.69-.49,1.42-.44,2.19.2,4.37.39,8.74.59,13.11l.16,3.67c.02.59.18,1.13.48,1.62.21.52.53.95.97,1.31.41.39.89.65,1.43.79.53.23,1.08.32,1.66.26.37-.08.75-.15,1.12-.23.71-.25,1.31-.66,1.81-1.22l.61-.91c.34-.69.49-1.42.44-2.19-.2-4.37-.39-8.74-.58-13.11l-.16-3.67Z"/>
    <path class="ELS-imago-cls-4" d="M236.52,150.78c.31-.02.19-.02,0,0h0Z"/>
    <path class="ELS-imago-cls-4" d="M247.99,147.61c-3.03-2.16-6.73-3.05-10.43-2.72-2.59.23-4.95,1-7.12,2.12,3.72-13.65,2.95-28.45-2.39-41.61-5.72-14.11-16.56-25.69-30.05-32.69-6.25-3.24-13.08-5.42-20.06-6.45,2.24-5.58,2.36-11.82.28-17.47-1.24-3.37-3.19-6.37-5.7-8.92-1.16-1.19-2.95-.7-4.01.27-.88.8-1.89,1.67-2.99,2.59-1.12.94-2.25,1.85-3.4,2.74-2.3,1.79-4.66,3.5-7.08,5.12-2.42,1.62-4.9,3.16-7.42,4.61-1.26.72-2.54,1.43-3.83,2.11-1.38.73-2.14,1.11-3.52,1.77-.68.33-1.37.62-2.05.93,2.95-8.44,1.93-18.21-3.34-25.64-.97-1.37-3.39-1.82-4.5-.28-6.87,9.59-14.12,18.92-21.72,27.94-1.31,1.56-2.65,3.09-3.99,4.63-1.8-3.74-2.21-7.91-1.15-12.05.59-2.31-2.45-4.48-4.38-2.93-6.96,5.57-11.11,14.25-10.98,23.15-11.44.97-22.64,5.42-31.55,12.65-9.89,8.02-16.78,19.13-19.73,31.51-1.58,6.67-1.97,13.67-1.09,20.48-2.77.23-5.47,1.16-7.77,2.81-3.68,2.65-6.26,6.67-7.79,10.89-3.52,9.68-3,20.3-.05,30.06,1.44,4.79,3.49,9.45,6.03,13.76,2.54,4.33,5.86,8.24,10.18,10.87,4.26,2.59,9.48,3.65,14.34,2.39,1.31-.34,2.58-.91,3.78-1.64-.07.43-.18.86-.22,1.29-.51,4.71.11,9.44,2.39,13.64,2.21,4.05,6.07,6.62,10.36,8.03,4.12,1.35,8.5,1.54,12.79,1.82,1.73.11,3.46.21,5.18.32l22.99,1.35c11.75.62,23.51,1.1,35.28,1.19,21.02.16,42.09-.85,62.87-4.16,2.59-.41,5.17-.86,7.75-1.35,2.44-.46,4.92-.87,7.3-1.6,2.23-.68,4.31-1.73,6.04-3.3,1.76-1.6,2.85-3.67,3.53-5.93,1.28-4.25.78-9.05.53-13.41-.03-.52-.08-1.05-.12-1.57,11.61-5.76,20.04-16.75,22.94-29.36,1.44-6.28,1.58-13.26-.4-19.45-1.05-3.27-2.92-6.49-5.77-8.51ZM179.73,222.15s-.04.06-.07.11c-.06.08-.15.21-.18.25-.23.31-.46.62-.7.92-.46.56-.95,1.1-1.46,1.62-.12.12-.24.24-.37.36-.04.04-.17.15-.24.21-.22.19-.45.37-.68.55-.61.47-1.24.9-1.9,1.3-.27.16-.55.32-.83.46-.04.02-.07.04-.09.05-.24.1-.47.21-.7.31-.76.33-1.37.97-1.68,1.72-6.37.33-12.76.53-19.13.59-16.17.14-32.34-.5-48.49-1.4-.19-.04-.37-.09-.56-.14-.09-.03-.29-.09-.39-.12-.48-.18-.96-.38-1.42-.6-.46-.22-.91-.47-1.34-.74-.09-.05-.17-.11-.26-.16-.03-.02-.04-.03-.1-.07-.24-.18-.48-.36-.71-.55-.4-.32-.78-.67-1.15-1.02-.18-.18-.36-.37-.54-.55,0,0,0,0,0,0-.09-.11-.18-.21-.27-.32-.32-.4-.62-.81-.91-1.24-.14-.21-.28-.43-.41-.65-.07-.11-.13-.22-.19-.33-.01-.02-.08-.15-.13-.23-.05-.11-.19-.41-.22-.48-.1-.23-.2-.47-.29-.71-.2-.52-.36-1.05-.5-1.59-.03-.12-.06-.23-.08-.35,0-.02,0-.01,0-.04-.02-.26-.08-.51-.11-.77-.06-.56-.09-1.12-.09-1.68,0-.2,0-.41.02-.61,0-.04.03-.32.05-.44.07-.56.17-1.11.3-1.66.06-.25.12-.51.19-.76.02-.08.12-.4.16-.52.04-.11.16-.43.2-.51.11-.28.24-.56.37-.83.28-.59.6-1.15.94-1.71.01-.02.01-.02.02-.03.08-.11.15-.22.23-.33.18-.24.37-.48.56-.71.35-.42.74-.81,1.13-1.2,9.6,5.17,20.35,7.99,31.25,8.33,11.19.35,22.49-2.19,32.51-7.17,5.07-2.53,9.72-5.62,14.05-9.23.49.37.98.75,1.43,1.16.46.42.9.86,1.31,1.31.07.09.4.48.44.54.22.27.43.56.63.84.38.54.73,1.09,1.06,1.66.13.23.26.47.38.7.03.06.06.13.07.16.09.2.18.4.27.6.26.6.49,1.22.69,1.85.09.29.18.59.26.88.05.17.09.34.13.51.02.08.04.16.05.23.24,1.31.35,2.64.31,3.96,0,.04-.01.21-.01.31,0,.04,0,.08,0,.09-.04.34-.08.68-.13,1.02-.1.68-.24,1.34-.42,2-.08.29-.17.57-.25.86-.01.04,0,.03-.01.05-.06.15-.11.31-.17.46-.25.64-.53,1.26-.84,1.87-.29.57-.62,1.12-.96,1.67ZM225.86,215.04c0,.08,0,.12,0,.17,0,.04,0,.08-.02.16-.02.18-.03.36-.05.54-.06.58-.15,1.15-.27,1.72-.09.45-.21.89-.35,1.32-.02.05-.03.09-.04.12-.11.24-.2.48-.31.71-.11.23-.25.46-.37.69-.01.02-.04.07-.07.11-.3.42-.63.8-.99,1.16-.09.09-.09.1-.12.13-.04.02-.05.02-.16.1-.22.15-.44.32-.66.47-.15.1-.31.19-.46.28-.02.01-.28.14-.4.21-.89.41-1.82.74-2.77,1.01-.45.13-.9.24-1.36.35-.27.06-.55.12-.82.18-.03,0-.34.07-.47.1-1.21.24-2.43.48-3.65.7-10.44,1.93-20.98,3.23-31.57,4.07,2.82-2.64,4.97-5.96,6.23-9.72,2.1-6.23.93-13.17-2.56-18.66-2-3.16-4.8-5.75-8.05-7.57-1.2-.67-2.49-.15-3.41.67,0,0-.11.1-.18.16-.07.06-.19.16-.18.15-.27.23-.53.46-.8.68-.5.42-1.01.83-1.52,1.23-1.06.84-2.15,1.64-3.27,2.42-2.14,1.49-4.38,2.85-6.68,4.07-.31.17-.62.33-.93.49,0,0-.12.06-.2.1-.08.04-.22.11-.21.11-.63.31-1.27.61-1.91.9-1.19.54-2.39,1.04-3.61,1.51-2.48.96-5.02,1.76-7.6,2.42-.58.15-1.17.29-1.76.42-.34.08-.68.15-1.02.22-.2.04-.39.08-.59.11-1.28.24-2.57.44-3.87.61-2.69.34-5.4.51-8.1.51-1.33,0-2.67-.04-4-.12,0,0-.15,0-.24-.02-.09,0-.23-.02-.23-.02-.36-.03-.72-.06-1.07-.09-.66-.06-1.33-.13-1.99-.22-2.7-.33-5.38-.83-8.01-1.48-3.04-.75-5.49-1.54-8.23-2.64-2.86-1.15-5.63-2.5-8.3-4.03-.86-.49-2.07-.37-2.86.19-4.57,3.21-7.49,8.45-7.87,14.01-.32,4.69,1.26,9.21,4.21,12.77-.61-.04-1.22-.07-1.82-.11-2.51-.16-5.02-.32-7.52-.48-1.22-.08-2.45-.16-3.67-.24-.32-.02-.64-.04-.96-.06-.02,0-.02,0-.05,0-.54-.04-1.09-.08-1.63-.13-2-.17-3.99-.42-5.94-.86-.48-.11-.96-.23-1.43-.37-.21-.06-.43-.13-.64-.19-.07-.02-.11-.03-.15-.04-.04-.02-.08-.03-.16-.06-.9-.35-1.78-.74-2.61-1.23-.19-.11-.38-.23-.56-.35-.06-.04-.12-.09-.15-.11-.42-.33-.84-.65-1.23-1.01-.13-.12-.26-.25-.39-.38-.01-.01-.26-.29-.33-.37-.32-.39-.63-.8-.91-1.23-.22-.35-.43-.71-.62-1.07-.04-.1-.2-.44-.21-.45-.09-.21-.18-.42-.26-.64-.18-.48-.34-.96-.48-1.45-.05-.18-.1-.36-.15-.54-.04-.17-.09-.35-.12-.52,0-.04,0-.04-.02-.1-.15-.93-.26-1.85-.3-2.79-.02-.51-.02-1.03,0-1.54,0-.19.01-.38.02-.56,0,0,.08-.81.09-.9.28-2.31.85-4.58,1.56-6.8.61-1.91,1.49-4.1,2.32-6.19.55-1.38.21-3.15-1.28-3.82-1.25-.56-3.02-.2-3.7,1.11-1.33-.09-3.01.71-3.12,2.21-.03.46-.09.92-.19,1.37-.05.22-.11.44-.17.67-.01.04-.01.05-.02.08-.01.03-.02.04-.04.08-.16.35-.3.7-.49,1.03-.11.2-.23.4-.35.59.35-.59-.17.23-.26.34-.26.33-.54.65-.84.96-.08.08-.16.16-.25.24.09-.09-.26.24-.33.29-.37.29-.75.56-1.14.81-.2.13-.4.24-.61.36-.07.04-.06.04-.08.06-.03.01-.03,0-.1.04-.43.18-.86.37-1.31.51-.22.07-.45.14-.67.2-.05.01-.24.05-.36.07-.94.14-1.89.21-2.85.16-.13-.02-.4-.04-.44-.05-.17-.02-.35-.05-.52-.08-.52-.08-1.04-.2-1.56-.33-.26-.07-.51-.15-.77-.22-.07-.02-.1-.03-.15-.04-.04-.02-.09-.04-.17-.07-.5-.2-.99-.41-1.47-.64-.48-.23-.96-.49-1.42-.76-.21-.13-.42-.26-.63-.39-.05-.03-.09-.06-.12-.08-.96-.69-1.87-1.44-2.71-2.27-.33-.32-.64-.65-.96-.99-.06-.06-.1-.1-.13-.13-.03-.04-.06-.08-.12-.15-.18-.21-.35-.42-.53-.64-.69-.86-1.34-1.76-1.95-2.69-.56-.85-1.08-1.73-1.58-2.61-.27-.48-.54-.97-.79-1.47,0-.01-.18-.35-.23-.45-.13-.26-.26-.52-.39-.79-.98-2.04-1.86-4.14-2.61-6.28-.74-2.1-1.36-4.23-1.86-6.4-.05-.22-.1-.45-.15-.68,0-.04-.11-.54-.11-.56-.11-.57-.2-1.14-.29-1.71-.18-1.14-.31-2.28-.41-3.43-.39-4.65-.17-8.31.96-12.86.12-.46.24-.93.37-1.39.08-.26.16-.52.24-.78.01-.04.07-.2.11-.33.32-.9.69-1.79,1.1-2.66.39-.82.83-1.62,1.32-2.39.03-.05.27-.39.27-.4.1-.14.2-.28.3-.41.34-.45.7-.89,1.08-1.31.27-.3.56-.58.84-.86.07-.07.06-.07.09-.1.03-.02.02-.01.08-.06.19-.15.37-.3.56-.45.35-.26.71-.51,1.08-.74.17-.1.34-.2.51-.3.1-.05.11-.06.14-.08.09-.04.18-.09.27-.13.45-.2.91-.37,1.37-.51.2-.06.41-.12.61-.17.05-.01.13-.03.21-.04.47-.07.94-.13,1.41-.16.25-.01.5-.02.75-.02.14,0,.29,0,.43,0,1.12.12,2.21.34,3.29.66.04.01.04.01.07.02.31.11.62.23.92.36.56.24,1.1.5,1.63.79.42.23.82.47,1.22.73.1.07.34.24.37.25.28.2.55.41.82.63.91.73,1.74,1.55,2.54,2.41.06.07.1.1.13.14.03.04.07.08.13.16.24.29.48.57.71.87.35.44.68.89,1,1.34.7.99,1.36,2.02,1.98,3.07.62,1.05,1.21,2.13,1.78,3.21.31.58.61,1.17.9,1.76.04.07.06.11.08.16.02.05.05.1.1.19.17.34.33.67.5,1.01.15.31.35.59.57.85.71-2.53,1.5-5.04,2.38-7.51-1.47-2.78-3.09-5.49-5.1-7.91-3.23-3.89-7.26-6.92-12.19-8.27-.02,0-.05,0-.07-.02,0-.12.06-.23.04-.35-.41-2.94-.58-5.91-.5-8.87.04-1.67.08-2.15.26-3.82.16-1.47.39-2.94.67-4.4.28-1.46.62-2.9,1.01-4.33.18-.65.37-1.29.57-1.93.11-.37.23-.73.36-1.09,0-.03.04-.12.07-.19.06-.15.11-.31.17-.46,1.02-2.79,2.26-5.49,3.71-8.08,1.5-2.67,2.71-4.47,4.66-6.87.93-1.15,1.91-2.26,2.93-3.32.49-.51,1-1.02,1.51-1.51.24-.23.48-.46.73-.69.14-.13.28-.26.42-.39.08-.07.12-.11.14-.13,0,0,.02-.01.06-.05,2.18-1.91,4.52-3.64,6.98-5.18,1.25-.78,2.53-1.52,3.84-2.2.08-.04.54-.27.59-.3.31-.15.61-.3.92-.44.69-.32,1.38-.63,2.09-.93,2.98-1.25,6.07-2.25,9.22-2.96.19-.04.37-.08.56-.12.04,0,.4-.08.5-.1.07-.01.14-.03.15-.03.28-.05.56-.1.84-.15.8-.14,1.6-.26,2.4-.36,1.65-.21,3.31-.34,4.97-.39,1.48-.05,2.83-1.53,2.65-3.03-.13-1.07-.19-2.15-.18-3.23,0-.27,0-.54.02-.81,0-.07.02-.34.03-.46.04-.44.09-.89.15-1.33.15-1.02.35-2.04.61-3.04.13-.48.27-.95.42-1.42.03-.08.15-.44.16-.46.1-.25.19-.5.3-.75.39-.96.84-1.89,1.34-2.8.2-.37.42-.73.64-1.09.5,4.03,2,7.94,4.46,11.17,1.1,1.45,3.23,1.72,4.5.28,7.8-8.86,15.25-18.02,22.33-27.46,1.17-1.57,2.32-3.15,3.47-4.73.41.95.78,1.91,1.08,2.9.15.52.28,1.05.4,1.58.02.1.12.61.13.69.04.25.08.51.12.77.17,1.28.25,2.58.24,3.87,0,.35-.02.69-.03,1.03,0,.06,0,.09,0,.12,0,.04,0,.08-.02.15-.08.69-.15,1.37-.26,2.05-.2,1.19-.51,2.35-.85,3.51-.05.15-.07.21-.07.23-.04.1-.07.2-.11.29-.12.32-.25.64-.38.96-.24.55-.49,1.1-.77,1.63-.71,1.37-1.03,1.87-1.8,2.88-.74.98-1,2.41-.22,3.47.74.99,2.08,1.56,3.29,1.09,11.29-4.35,22-10.29,31.6-17.65,1.97-1.51,3.88-3.1,5.75-4.73.2.27.41.54.6.82.33.51.64,1.02.93,1.55.06.11.12.23.18.34.02.04.03.06.06.12.14.3.27.59.4.89.5,1.2.89,2.45,1.19,3.72,0,.03,0,.03.01.05.03.15.05.29.08.44.05.28.09.55.12.83.09.69.14,1.39.16,2.08.02.57,0,1.14-.02,1.71-.01.1-.03.37-.04.46-.04.37-.09.74-.15,1.11-.1.61-.23,1.21-.39,1.81-.07.26-.14.51-.22.76-.04.13-.08.25-.12.38-.02.05-.02.05-.02.06-.01.03-.02.04-.05.11-.45,1.15-.96,2.27-1.58,3.34-.13.23-.27.45-.41.68,0,0-.04.06-.07.11-.06.08-.16.24-.19.27-.36.5-.73.99-1.13,1.47-.45.54-.93,1.06-1.44,1.55-.19.18-.38.36-.58.54-.04.02-.47.4-.56.47-.55.44-1.12.85-1.72,1.23-.26.17-.52.33-.79.48-.15.09-.31.18-.46.26-.09.05-.62.32-.16.1-1.33.66-2.37,2.07-1.75,3.62.51,1.28,2.2,2.46,3.62,1.75,3.6-1.8,6.74-4.39,9.12-7.59,2.95.34,5.88.85,8.75,1.63.78.21,1.55.43,2.31.67.43.13.85.27,1.27.41.05.02.06.02.09.03.24.09.49.17.73.26,1.68.61,3.33,1.3,4.95,2.05,1.54.72,3.05,1.5,4.52,2.34.7.4,1.39.81,2.07,1.23.38.24.76.47,1.13.72.15.1.3.2.45.29.1.06.12.08.15.1.02.01.04.03.14.1,2.86,2,5.58,4.17,8.09,6.59.58.56,1.15,1.13,1.7,1.71.31.32.61.65.92.98.12.13.24.26.36.4.08.1.11.13.14.15.06.07.12.14.18.2,1.14,1.32,2.22,2.68,3.24,4.09,1.02,1.41,1.97,2.86,2.86,4.35.45.76.89,1.54,1.31,2.32.54,1.02.66,1.25,1.19,2.38,1.6,3.44,2.86,7.04,3.8,10.71.12.48.24.96.35,1.44.04.19.09.38.13.58-.01-.06.1.46.12.56.12.59.33,1.8.46,2.61.29,1.9.5,3.82.62,5.74.13,2.12.16,4.24.07,6.36-.02.51-.05,1.02-.08,1.53,0,.08-.02.19-.02.22-.03.29-.05.59-.08.88-.1,1.08-.23,2.16-.39,3.23-.31,2.15-.74,4.27-1.28,6.37-.27,1.05-.57,2.09-.9,3.13-.06.19-.12.38-.18.56,0,0-.14.4-.17.5-.19.53-.38,1.06-.59,1.59-.24.64-.28,1.35-.14,2-.5.52-.99,1.06-1.46,1.61-2.2-7.02-4.75-13.93-7.67-20.68-.76-1.76-1.55-3.5-2.36-5.24-.09.52-.3,1.01-.63,1.42-1,1.25-2.84,1.18-4.01.27-.41-.32-.84-.63-1.26-.94,4.11,8.71,7.63,17.69,10.52,26.88,1.44,4.59,2.73,9.22,3.86,13.9,1.15,4.75,2,8.93,2.81,13.71,1.61,9.51,2.64,19.18,2.86,28.83.02.91,0,1.81-.02,2.72ZM249.49,168.16c0,.13-.01.26-.02.38,0,.05,0,.1,0,.15,0,.03,0,0,0,.05-.13,1.4-.3,2.8-.56,4.18-.27,1.45-.63,2.88-1.06,4.29-.09.31-.19.61-.29.92,0,0,0,.02,0,.03-.03.18-.13.37-.2.54-.24.66-.5,1.32-.78,1.97-.58,1.36-1.23,2.68-1.95,3.97-.31.56-.64,1.11-.97,1.66-.2.33-.41.65-.62.97,0,0,0,0,0,.01-.11.17-.23.33-.35.5-.92,1.31-1.92,2.57-2.99,3.76-.55.62-1.13,1.22-1.72,1.81-.27.27-.55.54-.83.8-.14.13-.28.26-.42.39-.03.02-.01.01-.03.03h0c-1.21,1.04-2.47,2.02-3.8,2.92-.69.46-1.39.9-2.11,1.32-.22-2.39-.48-4.78-.78-7.16-.64-5.04-1.47-10.05-2.47-15.03.05-.03.11-.03.15-.06.59-.44,1.05-1.04,1.19-1.78.1-.52.25-1.03.41-1.54.32-.83.72-1.63,1.19-2.38.53-.74,1.13-1.43,1.79-2.05.52-.44,1.08-.83,1.67-1.17.33-.15.68-.27,1.03-.37.13-.01.26-.02.38-.03,0,0,0,0,0,0,.02.03.04.06.06.09.14.34.25.69.33,1.04.2,1.17.27,2.35.22,3.54-.11,1.23-.36,2.45-.74,3.62-.27.72-.56,1.43-.92,2.1-.19.34-.28.7-.27,1.08-.06.38-.02.76.13,1.13.11.36.3.67.57.93.22.3.5.52.84.68.68.3,1.49.43,2.21.14.7-.28,1.25-.74,1.61-1.42.64-1.19,1.12-2.46,1.51-3.76.33-1.08.54-2.19.65-3.31.13-1.35.18-2.7.04-4.05-.08-.79-.24-1.57-.4-2.35-.1-.49-.24-.98-.45-1.44-.2-.43-.41-.89-.68-1.28-.07-.09-.14-.18-.21-.27-.23-.27-.46-.55-.72-.79-.08-.08-.17-.15-.27-.21-.28-.2-.57-.41-.88-.58-.09-.05-.19-.09-.29-.13-.33-.13-.66-.25-1-.34-.45-.12-.93-.13-1.39-.15-.24-.01-.47,0-.71.02-.48.06-.97.16-1.44.28-.24.06-.48.14-.71.23-.67.26-1.32.59-1.93.97-.43.26-.84.55-1.23.86-.94.75-1.84,1.58-2.6,2.52-.39.48-.75.99-1.09,1.51-.57-2.36-1.17-4.7-1.82-7.04.67-.92,1.32-1.84,2.05-2.71.98-1.18,2.05-2.53,3.28-3.45-.14.11-.21.16-.24.18-.01,0-.01.01,0,0,.05-.04.28-.21.34-.26.16-.14.33-.28.5-.41.28-.22.56-.44.85-.65.69-.51,1.42-.98,2.17-1.4.13-.07.25-.14.38-.21.02,0,.02-.01.03-.02.01,0,.02,0,.03-.01.3-.13.6-.27.91-.4.74-.3,1.5-.54,2.28-.73.05-.01.12-.02.19-.03-.05,0-.07,0-.15.01.13,0,.27-.05.39-.07.39-.07.79-.12,1.18-.15.33-.03.66-.05.99-.06.2,0,.4,0,.59,0,.11,0,.87.1.41,0-.48-.1.14.02.21.03.19.02.39.05.58.08.32.05.64.11.95.19.19.04.38.09.56.15.06.02.12.04.19.06.3.1.25.08-.15-.06.3-.01.8.32,1.07.45.29.14.58.29.85.46.06.03.11.07.17.1.26.17.22.14-.11-.08.14.04.36.26.48.36.26.21.51.42.75.65.14.14.28.28.42.42.02.02.01,0,.03.03.01.01,0,0,.02.02.45.57.88,1.16,1.24,1.79.1.17.19.34.28.51.17.39.35.78.51,1.18.26.66.48,1.34.67,2.03.1.36.19.72.27,1.09,0,.01.01.04.02.06,0,0,0,0,0,0,.07.18.08.41.11.6.25,1.48.4,2.97.46,4.47.02.64.03,1.28.02,1.92,0,.38-.02.77-.03,1.15Z"/>
    <path class="ELS-imago-cls-4" d="M228.84,154.9s-.01,0,0,0h0Z"/>
    <path class="ELS-imago-cls-4" d="M102.23,234.79s.09,0,.14,0l-.26-.04s.08.03.13.04Z"/>
    <path class="ELS-imago-cls-4" d="M52.64,166.19c-.65-.8-1.35-1.57-2.12-2.25-.76-.68-1.61-1.27-2.48-1.8-.62-.38-1.27-.69-1.95-.93-.88-.32-1.76-.6-2.68-.75-.93-.15-1.89-.22-2.84-.2-.94.02-1.84.19-2.76.39-.68.15-1.35.36-1.98.66-.82.38-1.62.79-2.33,1.36-.71.57-1.4,1.19-1.93,1.93-.68.94-1.2,1.88-1.58,2.98-.65,1.89-.85,3.95-.56,5.93.16,1.06.39,2.12.75,3.14.38,1.07.9,2.11,1.46,3.1.9,1.61,2.03,3.08,3.23,4.48.44.52.89,1.03,1.34,1.53.45.51,1.43.74,2.06.7.7-.05,1.51-.41,1.95-.96.46-.57.78-1.31.7-2.06l-.15-.75c-.16-.47-.43-.86-.8-1.19.14.15.27.31.41.46-1.58-1.79-3.1-3.67-4.22-5.79-.42-.89-.76-1.82-.98-2.78-.12-.75-.18-1.51-.16-2.27.06-.54.16-1.07.31-1.59.17-.43.37-.84.61-1.23.23-.3.48-.59.75-.86.37-.3.77-.57,1.19-.8.5-.22,1.02-.39,1.54-.53.71-.12,1.43-.16,2.16-.14.75.08,1.49.23,2.22.45.64.25,1.25.56,1.83.92.77.55,1.48,1.18,2.13,1.88.86,1.02,1.59,2.14,2.22,3.32.77,1.6,1.37,3.27,1.81,4.99.17.66.83,1.32,1.42,1.61.03.01.06.01.09.02-.38,2.92-.68,5.85-.86,8.79-.17,2.8,4.4,3.63,5.38,1.08,3.54-9.13,7.78-17.99,12.68-26.47,4.93-8.52,10.14-16.12,16.38-23.84,3.49-4.32,7.17-8.48,11.02-12.48.98-1.02.87-2.73-.03-3.74-.99-1.12-2.44-1.18-3.71-.49-3.32,1.81-6.64,3.61-9.96,5.42-.51-.72-1.09-1.39-1.7-2.04,3.25-2.64,6.53-5.24,10.01-7.57,4.52-3.03,8.65-5.32,13.85-6.91.56-.17,1.13-.33,1.7-.48.33-.09.67-.17,1-.24.14-.03.29-.06.43-.09.03,0,.02,0,.04,0,.02,0,.02,0,.08-.01,1.26-.23,2.54-.4,3.82-.49,2.88-.2,5.17-.02,8.03.53,1.41.27,2.81.61,4.19,1,.69.2,1.38.4,2.06.62.29.09.59.19.88.29.12.04.23.08.35.12.04.01.19.07.25.09,2.53.9,5.01,1.94,7.42,3.12,2.69,1.31,5.29,2.78,7.8,4.41,1.03.67,2.17,1.47,3.38,2.38,1.22.91,2.4,1.87,3.56,2.85,2.44,2.08,6.06-1.02,4.23-3.74l-8.58-12.71c5.36,3.12,10.16,7.01,14.51,11.79,1.43,1.57,4.37.41,4.66-1.57.66-4.46.51-8.99-.42-13.38,4.6,2.05,9.16,4.21,13.6,6.59,3.12,1.68,6.2,3.43,9.23,5.27,1.54.93,3.06,1.88,4.58,2.86.71.46,1.42.92,2.13,1.39.84.56,1.2.8,2.03,1.36,2.89,1.97,5.71,4.03,8.5,6.15.42.32.84.62,1.26.94,1.18.91,3.01.98,4.01-.27.32-.4.53-.9.63-1.42.17-.95-.08-1.97-.89-2.6-11.54-8.91-23.99-16.64-37.13-22.95-3.67-1.76-7.4-3.42-11.17-4.96-1.08-.44-2.23-.37-3.14.43-.82.72-1.24,1.99-.82,3.05,1.36,3.37,2.07,6.89,2.25,10.42-6.05-5.47-13.11-9.82-20.73-12.7-1.15-.44-2.57-.37-3.41.67-.79.99-.94,2.39-.22,3.47l5.99,8.88c-5.54-3.07-11.46-5.47-17.59-6.96-5.96-1.45-12-1.55-17.98-.15-5.43,1.28-10.55,3.79-15.27,6.73-5.36,3.33-10.27,7.3-15.12,11.32-1.28,1.06-1.89,3.32-.28,4.5.51.37,1,.76,1.47,1.19.25.23.5.46.73.71.04.04.28.31.35.39.79.95,1.47,1.98,2.04,3.08.51.98,1.59,1.25,2.6,1.14-8.53,10.39-15.95,21.7-22.14,33.63,1.29-5.09,2.84-9.82,4.85-14.66,1.33-3.21,2.82-6.35,4.45-9.41.7-1.32.1-3.2-1.28-3.82-1.44-.64-3.07-.13-3.82,1.28-2.59,4.89-4.81,9.99-6.66,15.21-.88,2.48-1.67,4.98-2.38,7.51-.57,2.04-1.09,4.08-1.55,6.15-.65-1.28-1.37-2.53-2.28-3.64Z"/>
  </g>
</svg>