<?xml version="1.0" encoding="UTF-8"?>
<svg id="Capa_2" data-name="Capa 2" xmlns="http://www.w3.org/2000/svg" viewBox="0 0 513.44 382.21">
  <defs>
    <style>
      .els-cube-cls-1 {
        fill: #fff;
      }

      .els-cube-cls-2 {
        fill: #7ef3e2;
      }

      .els-cube-cls-3 {
        fill: #f49739;
      }

      .els-cube-cls-4 {
        fill: #f5f5f5;
      }

      .els-cube-cls-5 {
        fill: #1c5253;
      }
    </style>
  </defs>
  <g id="Capa_1-2" data-name="Capa 1">
    <path class="els-cube-cls-5" d="M321.82,84.55L176.55,1.49c-3.48-1.99-7.74-1.99-11.22,0L23.19,82.76c-7.59,4.34-7.59,15.28,0,19.62l145.27,83.06c3.48,1.99,7.74,1.99,11.22,0l142.15-81.27c7.59-4.34,7.59-15.28,0-19.62ZM270.76,102.71c-1.98,1.23-5.1,1.34-9.35.33-4.26-1.01-8.63-2.83-13.11-5.46l-70.21-41.13-20.24,12.54,58.55,34.3c4.49,2.63,7.59,5.23,9.3,7.82,1.71,2.58,1.54,4.51-.53,5.79-1.98,1.23-5.1,1.34-9.35.33-4.26-1.01-8.63-2.83-13.11-5.46l-58.55-34.3-22.02,13.64,70.21,41.13c4.49,2.63,7.55,5.26,9.19,7.89,1.63,2.63,1.54,4.51-.29,5.64-1.98,1.23-5.12,1.35-9.41.37-4.3-.99-8.69-2.79-13.17-5.42l-86.78-50.84c-4.5-2.63-7.56-5.26-9.19-7.89-1.64-2.63-1.42-4.59.64-5.87l68.81-42.63c2.06-1.28,5.3-1.46,9.72-.55,4.4.91,8.86,2.68,13.35,5.31l86.78,50.84c4.49,2.63,7.59,5.23,9.3,7.82,1.71,2.58,1.54,4.51-.53,5.79Z"/>
    <path class="els-cube-cls-4" d="M271.29,96.92c-1.72-2.58-4.82-5.19-9.3-7.82l-86.78-50.84c-4.5-2.63-8.95-4.4-13.35-5.31-4.41-.91-7.65-.73-9.72.55l-68.81,42.63c-2.06,1.28-2.28,3.24-.64,5.87,1.63,2.63,4.69,5.26,9.19,7.89l86.78,50.84c4.49,2.63,8.88,4.44,13.17,5.42,4.29.98,7.43.86,9.41-.37,1.82-1.13,1.92-3.01.29-5.64-1.64-2.63-4.7-5.26-9.19-7.89l-70.21-41.13,22.02-13.64,58.55,34.3c4.49,2.63,8.86,4.45,13.11,5.46,4.25,1.01,7.37.9,9.35-.33,2.06-1.28,2.24-3.21.53-5.79-1.72-2.58-4.82-5.19-9.3-7.82l-58.55-34.3,20.24-12.54,70.21,41.13c4.49,2.63,8.86,4.45,13.11,5.46,4.25,1.01,7.37.9,9.35-.33,2.06-1.28,2.24-3.21.53-5.79Z"/>
    <path class="els-cube-cls-3" d="M331.02,115.56l-142.11,83.23c-3.48,2.04-5.62,5.77-5.62,9.81v162.23c0,8.78,9.53,14.24,17.11,9.81l142.11-83.23c3.48-2.04,5.62-5.77,5.62-9.81V125.37c0-8.78-9.53-14.24-17.11-9.81ZM297.85,288.99c-2.25,3.42-5.04,6.09-8.39,8.02l-62.66,36.18c-3.35,1.93-6.14,2.42-8.39,1.47-2.25-.95-3.38-3.09-3.38-6.44v-111.44c0-3.34,1.16-6.8,3.47-10.39,2.31-3.58,5.27-6.42,8.87-8.5,3.09-1.78,5.81-2.23,8.19-1.36,2.38.88,3.57,2.99,3.57,6.33v100.64l50.32-29.05c3.34-1.93,6.13-2.48,8.39-1.66,2.25.82,3.37,2.91,3.37,6.25s-1.13,6.53-3.37,9.95Z"/>
    <path class="els-cube-cls-5" d="M297.85,272.79c-2.25-.82-5.04-.27-8.39,1.66l-50.32,29.05v-100.64c0-3.34-1.19-5.45-3.57-6.33-2.38-.87-5.11-.43-8.19,1.36-3.6,2.08-6.55,4.91-8.87,8.5-2.31,3.59-3.47,7.05-3.47,10.39v111.44c0,3.34,1.13,5.49,3.38,6.44,2.24.95,5.04.46,8.39-1.47l62.66-36.18c3.34-1.93,6.13-4.6,8.39-8.02,2.25-3.42,3.37-6.73,3.37-9.95s-1.13-5.42-3.37-6.25Z"/>
    <path class="els-cube-cls-2" d="M159.16,198.75L17.31,115.68c-7.66-4.49-17.31,1.04-17.31,9.92v161.93c0,4.08,2.16,7.86,5.69,9.92l141.85,83.07c7.66,4.49,17.31-1.04,17.31-9.92v-161.93c0-4.08-2.16-7.86-5.69-9.92ZM61.57,296.47s-.05-.05-.08-.07l.17.12s-.06-.03-.09-.05ZM157.73,311.77c-1.66,7.15-6.88,11.29-14.2,10.92.03.35.07.71.1,1.06.22,2.92.62,6.2-.13,8.5-.4,1.22-1.06,2.18-2.17,2.59-1.08.4-2.4.35-3.81,0-1.51-.37-3.09-.98-4.64-1.54-1.64-.6-3.28-1.22-4.93-1.86-13.22-5.19-26.68-11.99-40.11-19.52-7.52-4.22-15.04-8.68-22.56-13.24l-14.71-9c-1.11-.68-2.21-1.35-3.32-2.04-2.75-1.69-5.55-3.37-8.2-5.7-2.76-2.43-5.27-5.46-6.75-8.86-1.53-3.53-2-6.81-1.74-9.68.02-.27.09-.5.12-.76-.75.05-1.56-.03-2.39-.27-3.09-.9-6.44-3.43-9.2-6.61-2.8-3.23-4.98-6.94-6.68-10.64-1.69-3.69-3.07-7.43-4.07-11.05-2.03-7.36-2.53-14.43-.44-19.46.91-2.19,2.5-3.89,4.81-4.31,1.44-.26,3.15.09,4.92.92-.67-4.72-.53-9.12.38-12.88,1.69-6.98,5.92-11.75,12.11-13.45,5.58-1.53,12.67-.46,19.96,2.95-.22-5.81,2.29-9.97,6.66-11.12,1.21-.32,3.19,2.16,2.85,3.45-.61,2.31-.29,5.16.92,8.22.83-.53,1.66-1.05,2.48-1.59,4.72-3.16,9.2-6.65,13.44-10.43.68-.61,2.24.54,2.88,1.77,3.48,6.67,4.29,13.37,2.53,17.79.43.04.87.09,1.3.12.87.06,1.35.08,2.22.1.81.01,1.62.01,2.41-.01,1.59-.05,3.15-.17,4.67-.36,1.52-.2,3-.47,4.44-.82.72-.17,1.43-.37,2.13-.58.69-.21,1.32-.42,1.87-.62.67-.25,1.8.07,2.56,1.25,1.64,2.54,2.94,5.18,3.78,7.8,1.42,4.4,1.44,8.4.09,11.22,4.48,3.13,8.87,6.95,12.92,11.27,8.73,9.3,15.84,20.63,19.71,31.8,3.61,10.41,4.34,20.27,2.17,27.81,1.37.04,2.86.38,4.51,1.14,2.36,1.09,4.73,2.97,6.71,5.44,1.85,2.31,3.1,5.06,3.82,7.55,1.36,4.71,1.38,9.18.56,12.74Z"/>
    <path class="els-cube-cls-1" d="M112.09,313.76s0,0,0-.03c.05-.16.1-.31.15-.47.1-.37.18-.75.24-1.15.03-.2.05-.41.07-.61,0,0,0-.03,0-.05,0-.06,0-.17,0-.2,0-.85-.09-1.75-.26-2.68-.01-.05-.02-.11-.04-.17-.03-.12-.06-.25-.09-.38-.05-.22-.11-.44-.18-.66-.14-.48-.29-.96-.47-1.44-.06-.16-.12-.32-.18-.48,0-.02-.03-.08-.05-.13-.08-.2-.17-.39-.26-.59-.22-.49-.45-.97-.7-1.45-.13-.26-.27-.51-.42-.77-.03-.05-.24-.42-.29-.5-.27-.44-.56-.88-.86-1.32-.3-.43-.61-.85-.93-1.26-2.71.81-5.63,1.17-8.83,1.02-6.32-.31-13.5-2.66-20.66-6.84-6.97-4.07-13.88-9.7-20.1-16.44-.24.11-.48.23-.7.38-.12.08-.24.17-.35.26-.05.04-.1.09-.14.13,0,0,0,0-.01.02-.21.24-.41.49-.57.77-.08.13-.15.27-.22.41-.02.04-.09.21-.12.26-.02.06-.08.23-.09.28-.04.14-.08.28-.11.42-.07.31-.13.64-.16.97,0,.07-.02.25-.02.27,0,.13,0,.26,0,.39,0,.36.04.74.08,1.12.02.18.06.36.08.54,0,.02,0,.01,0,.02.02.09.04.17.06.26.09.4.21.8.34,1.2.06.19.13.37.2.56.02.06.12.31.15.39.03.07.08.18.08.2.04.09.08.19.13.28.09.19.18.38.27.57.19.38.39.75.6,1.13.06.1.12.2.18.3,0,0,0,0,0,0,.12.18.23.37.35.55.24.36.49.72.75,1.07.15.2.31.4.46.61.03.04.04.05.06.08.06.07.11.13.17.2.28.33.57.65.87.96.3.31.61.61.92.89.06.05.19.17.25.21.12.1.24.19.36.29,10.33,6.29,20.67,12.42,31,18.04,4.07,2.22,8.15,4.34,12.22,6.38.19-.38.57-.58,1.05-.52.15.02.3.03.45.05.01,0,.04,0,.06,0,.18,0,.35,0,.52,0,.42-.02.82-.08,1.2-.17.15-.03.29-.08.42-.12.04-.02.13-.04.15-.05.08-.03.15-.07.23-.1.32-.15.63-.33.91-.53.15-.11.3-.22.43-.35.01-.01.07-.06.11-.1.02-.02.04-.04.04-.04.21-.23.41-.47.59-.74.19-.28.36-.59.51-.91.04-.08.07-.16.1-.24Z"/>
    <path class="els-cube-cls-1" d="M140.23,325.6c-.29-6.33-1.1-12.96-2.27-19.69-.59-3.38-1.2-6.4-2.01-9.88-.79-3.43-1.69-6.89-2.68-10.37-1.99-6.97-4.38-14.04-7.14-21.13-1.81-2.35-3.65-4.69-5.52-6.98-.54-.66-.77-.94-1.32-1.6-.46-.55-.92-1.1-1.38-1.65-.98-1.16-1.97-2.32-2.97-3.47-1.97-2.26-3.96-4.49-5.98-6.68-2.88-3.11-5.82-6.12-8.79-9.08.66,3.17.82,6.16.48,8.82-.16,1.18-2.02.89-2.95-.63-2.85-4.63-5.98-8.85-9.46-12.77l5.68,11.27c1.21,2.41-1.05,3.14-2.64.93-.76-1.05-1.53-2.08-2.32-3.1-.79-1.02-1.53-1.94-2.2-2.74-1.63-1.94-3.31-3.82-5.05-5.61-1.56-1.62-3.16-3.16-4.79-4.64-.03-.03-.13-.12-.16-.14-.08-.07-.15-.13-.23-.2-.19-.17-.38-.33-.57-.5-.44-.38-.88-.76-1.33-1.13-.89-.74-1.79-1.45-2.69-2.13-1.84-1.36-3.3-2.29-5.14-3.18-.82-.4-1.63-.73-2.43-1.03-.04-.02-.04-.01-.05-.02-.01,0,0,0-.02,0-.09-.03-.18-.06-.27-.09-.21-.07-.43-.14-.64-.2-.36-.11-.72-.2-1.08-.29-3.3-.81-5.9-.78-8.74-.42-2.19.28-4.25.8-6.28,1.37.4.63.78,1.27,1.12,1.92,2.09,0,4.19,0,6.28,0,.8,0,1.73.55,2.38,1.63.59.97.69,2.12.07,2.43-2.4,1.23-4.69,2.62-6.85,4.19-3.86,2.8-7.08,5.88-10.09,9.66-3,3.76-5.57,8-7.69,12.67-.59,1.3-3.52-.85-3.46-2.6.07-1.84.21-3.64.41-5.4-.02-.02-.04-.03-.06-.05-.38-.4-.81-1.06-.93-1.54-.31-1.27-.72-2.57-1.23-3.87-.42-.99-.9-1.97-1.47-2.94-.43-.68-.89-1.34-1.39-1.97-.38-.44-.77-.86-1.19-1.24-.47-.4-.94-.76-1.42-1.07-.46-.27-.92-.49-1.38-.67-.34-.1-.66-.17-.98-.21-.26,0-.51.04-.74.1-.17.08-.32.18-.46.29-.14.17-.27.36-.37.58-.09.28-.15.59-.17.92,0,.49.05,1,.14,1.53.16.7.39,1.42.67,2.15.75,1.77,1.75,3.52,2.79,5.24-.09-.15-.18-.29-.27-.44.24.34.42.69.53,1.05l.11.54c.07.52-.13.88-.41,1.09-.28.2-.79.15-1.23-.06-.41-.2-1.03-.7-1.33-1.18-.3-.49-.59-.98-.88-1.47-.78-1.33-1.53-2.68-2.13-4.04-.37-.84-.72-1.69-.98-2.52-.25-.78-.41-1.55-.53-2.3-.22-1.39-.12-2.65.26-3.65.23-.58.54-1,.96-1.37.33-.29.76-.45,1.2-.57.44-.12.95-.1,1.47-.06.4.03.82.13,1.26.27.58.19,1.16.41,1.76.72.6.32,1.22.7,1.82,1.13.59.42,1.16.92,1.73,1.43.44.4.86.83,1.26,1.29.56.65,1.11,1.33,1.61,2.04.5.72.96,1.46,1.39,2.21.6,1.05,1.08,2.11,1.52,3.17.26-1.18.56-2.32.89-3.44-.15-.25-.28-.5-.38-.76-.11-.28-.22-.55-.34-.83-.03-.07-.05-.12-.06-.16-.01-.04-.03-.07-.05-.13-.2-.49-.4-.97-.6-1.46-.38-.9-.77-1.81-1.19-2.71-.41-.9-.85-1.79-1.31-2.69-.21-.41-.43-.82-.66-1.22-.15-.27-.31-.54-.46-.81-.04-.07-.06-.11-.08-.15-.02-.03-.05-.07-.09-.14-.52-.84-1.07-1.66-1.66-2.46-.18-.24-.35-.47-.54-.7-.02-.02-.18-.22-.24-.3-.26-.31-.52-.61-.79-.9-.34-.38-.7-.74-1.05-1.09-.2-.19-.39-.38-.59-.56-.02-.02-.02-.02-.05-.04-.7-.59-1.4-1.12-2.12-1.59-.09-.05-.18-.11-.27-.16-.16-.09-.32-.17-.48-.25-.3-.15-.6-.28-.9-.4-.05-.02-.1-.04-.13-.05-.13-.04-.26-.08-.39-.11-.3-.07-.59-.12-.87-.15-.06,0-.12-.01-.17-.01-.02,0-.03,0-.09,0-.11,0-.22,0-.32.02-.23.02-.46.05-.68.1-.12.03-.23.06-.35.09-.04.01-.03,0-.05.01-.02.01-.01.01-.05.03-.18.09-.36.16-.52.26-.24.14-.46.29-.67.47-.06.05-.12.11-.18.16,0,0-.15.14-.17.16-.3.33-.56.69-.8,1.08-.25.41-.47.86-.66,1.33-.03.07-.06.16-.07.17-.05.14-.09.28-.14.42-.08.25-.15.51-.22.77-.66,2.55-.73,4.85-.42,7.99.08.78.18,1.57.31,2.36.06.4.14.8.21,1.21,0,.01.08.37.08.4.03.16.07.33.11.49.35,1.58.78,3.18,1.29,4.8.52,1.65,1.11,3.32,1.77,4.99.08.22.17.43.26.65.03.08.15.36.15.37.17.41.35.82.53,1.23.33.75.68,1.5,1.05,2.25.4.81.83,1.63,1.29,2.43.11.2.23.4.35.6.04.06.06.1.08.14.02.03.04.07.08.13.21.33.41.65.63.98.55.84,1.15,1.64,1.77,2.43.01.02.04.05.07.09.14.16.27.32.41.48.3.34.61.67.92,1,.31.32.63.63.95.94.05.05.08.08.11.1.03.02.05.04.09.08.16.14.33.28.49.42.33.27.66.53,1,.77.11.08.22.16.34.23.02.02.2.13.28.19.61.37,1.22.66,1.82.9.08.03.2.07.23.08.14.04.29.08.43.11.28.06.55.1.83.13.04,0,.04,0,.06.01.02,0,0,0,.05,0,.13,0,.26,0,.38-.02.25-.02.49-.06.72-.12.04-.01.26-.1.21-.07.05-.02.1-.04.15-.07.18-.09.36-.2.52-.32.05-.04.37-.39.16-.13.07-.09.15-.17.21-.26.11-.15.2-.33.29-.5.01-.02.02-.03.02-.04,0-.02,0-.02.01-.05.03-.12.07-.24.1-.37.06-.26.09-.53.1-.82.05-.93,1.11-.86,1.96-.33.41-.61,1.54-.22,2.34.59.96.95,1.2,2.22.87,2.92-.5,1.06-1.02,2.17-1.39,3.19-.42,1.18-.75,2.45-.89,3.85,0,.05-.04.55-.05.55,0,.12,0,.24,0,.36,0,.33,0,.66.03,1,.04.62.12,1.26.24,1.92,0,.04,0,.04.01.07.03.13.06.25.09.38.03.13.07.27.1.4.1.37.21.74.33,1.11.06.17.11.34.18.51,0,.01.11.29.14.37.13.3.27.61.41.91.18.38.39.75.6,1.12.05.08.21.35.22.36.08.13.17.26.26.38.25.37.53.73.8,1.09.02.02.06.08.1.12.12.14.24.28.36.42.54.61,1.11,1.17,1.69,1.72.05.05.07.07.1.1.03.02.05.04.1.08.14.12.27.24.41.35.31.26.61.5.92.74,1.26.98,2.53,1.84,3.81,2.66.35.22.7.44,1.04.66.02.01.02.01.03.02.21.13.41.25.62.38.78.48,1.57.97,2.35,1.45,1.6.99,3.21,1.98,4.82,2.97.39.24.78.47,1.17.71-1.94-3.35-3.02-6.84-2.89-9.76.15-3.47,1.94-5.83,4.81-6.3.5-.08,1.27.27,1.83.89,1.73,1.94,3.52,3.79,5.36,5.54,1.77,1.68,3.35,3.06,5.3,4.62,1.7,1.36,3.42,2.62,5.14,3.79.42.29.85.57,1.27.84.23.15.46.29.69.44,0,0,.09.05.15.09.06.04.16.1.15.09.85.52,1.7,1.02,2.56,1.49,1.73.95,3.46,1.8,5.17,2.53.82.35,1.65.68,2.46.97.12.05.25.09.37.13.22.07.43.15.65.22.37.12.75.24,1.12.35,1.64.49,3.25.86,4.82,1.12.77.13,1.53.23,2.28.3.41.04.81.07,1.2.09,0,0,.08,0,.14,0,.05,0,.13,0,.13,0,.2,0,.39.01.59.01,1.45.02,2.86-.07,4.2-.28.7-.11,1.38-.24,2.05-.41.32-.08.64-.17.95-.26.17-.05.34-.1.5-.16,0,0,.07-.02.11-.04.04-.01.12-.04.11-.04.58-.21,1.39-.09,2.17.77,2.11,2.33,3.94,5,5.27,7.75,2.31,4.79,3.17,9.7,1.93,13-.75,1.99-2.07,3.38-3.83,4.1,6.75,3.19,13.46,6.08,20.11,8.52.78.28,1.55.56,2.32.84.08.03.28.1.3.1.17.06.35.12.52.17.29.09.58.18.86.26.6.16,1.19.28,1.75.33.08,0,.24,0,.25,0,.1,0,.2-.01.29-.02.14-.02.28-.05.42-.07.07,0,.08,0,.1,0,.02-.01.02-.02.07-.05.22-.11.43-.24.61-.4.02-.02.03-.04.04-.05.07-.11.15-.2.22-.31.07-.11.13-.23.19-.35,0-.01.02-.04.03-.06.08-.23.15-.48.2-.73.07-.33.12-.67.15-1.02.01-.11.02-.22.03-.33,0-.05,0-.07,0-.1,0-.03,0-.06,0-.11,0-.58,0-1.16-.03-1.75ZM64.66,264.26l-.37.37c-.31.19-.69.24-1.14.15-.24-.08-.48-.17-.71-.25-.37-.17-.73-.42-1.07-.76-.35-.28-.66-.62-.93-1.02-.29-.39-.5-.79-.64-1.19-.2-.42-.31-.83-.33-1.22l-.16-2.44c-.19-2.9-.39-5.8-.58-8.7-.04-.52.04-.94.25-1.26l.37-.37c.31-.19.69-.24,1.14-.15.24.08.48.17.71.25.37.17.73.42,1.07.76.35.28.65.62.93,1.02.29.39.5.79.64,1.19.2.42.31.83.33,1.22l.16,2.44c.19,2.9.39,5.8.58,8.7.04.52-.04.94-.25,1.26ZM116.58,293.18l-.37.37c-.31.19-.69.24-1.14.15-.24-.08-.48-.17-.71-.25-.37-.17-.73-.42-1.07-.76-.35-.28-.66-.62-.93-1.02-.29-.39-.5-.79-.64-1.19-.2-.42-.31-.83-.33-1.22l-.16-2.44c-.19-2.9-.39-5.8-.58-8.7-.04-.52.04-.94.25-1.26l.37-.37c.31-.19.69-.24,1.14-.15.24.08.48.17.71.25.37.17.73.42,1.07.76.35.28.65.62.93,1.02.29.39.5.79.64,1.19.2.42.31.83.33,1.22l.16,2.44c.19,2.9.39,5.8.58,8.7.04.52-.04.94-.25,1.26Z"/>
    <path class="els-cube-cls-1" d="M154.23,300.28c-.02-.13-.03-.29-.08-.43,0,0,0,0,0,0,0-.01,0-.03-.01-.04-.06-.27-.12-.53-.19-.8-.13-.51-.28-1.03-.46-1.55-.11-.32-.23-.63-.34-.95-.06-.14-.12-.29-.19-.43-.25-.54-.53-1.07-.82-1.6,0-.02,0,0-.01-.02-.01-.02,0,0-.02-.03-.09-.14-.18-.28-.28-.42-.16-.23-.32-.46-.49-.69-.08-.1-.22-.32-.31-.4.22.26.24.29.07.09-.04-.04-.07-.08-.11-.12-.18-.21-.36-.41-.55-.6-.17-.18-.5-.57-.69-.67.25.23.28.26.09.09-.04-.03-.08-.07-.12-.1-.12-.1-.24-.2-.36-.29-.2-.16-.41-.31-.61-.46-.12-.09-.25-.17-.37-.26-.04-.03-.44-.32-.13-.09.3.23-.19-.11-.26-.15-.13-.07-.25-.14-.38-.21-.21-.11-.42-.22-.63-.31-.25-.12-.5-.22-.75-.32-.08-.03-.17-.05-.25-.09.05.03.06.03.1.05.12.05.2.1,0,0-.04-.02-.09-.04-.12-.05-.49-.15-.98-.26-1.44-.33-.19-.03-.38-.04-.58-.07,0,0-.01,0-.02,0,0,0-.01,0-.02,0-.08,0-.16,0-.24,0-.47,0-.93.05-1.36.14-.18.03-.36.08-.53.12-.11.03-.21.06-.31.09-.06.02-.42.09-.06.02-.78.16-1.43.66-2.04,1.08-.45.31-.85.68-1.27,1.03.45,1.74.87,3.48,1.28,5.21.21-.22.43-.42.67-.59.47-.34,1.03-.56,1.62-.71.25-.06.5-.1.77-.12.38-.03.8-.01,1.22.05.15.02.3.06.45.1.3.09.61.19.91.32.15.07.3.14.45.23.29.18.6.35.89.59.22.18.43.38.64.57.06.06.13.12.19.19.2.21.39.45.57.68.06.08.12.15.17.23.17.25.32.51.47.77.05.08.1.16.14.25.18.35.32.72.46,1.07.14.37.24.74.31,1.09.12.56.23,1.12.29,1.66.11.92.1,1.78.04,2.61-.05.69-.17,1.33-.36,1.92-.23.7-.52,1.36-.91,1.9-.22.31-.56.42-1.01.35-.45-.07-.97-.43-1.41-.87-.22-.22-.4-.47-.55-.74-.18-.26-.3-.53-.38-.81-.1-.29-.13-.55-.1-.78-.01-.25.04-.45.15-.6.22-.31.4-.66.56-1.04.22-.63.36-1.33.41-2.09.02-.75-.05-1.54-.2-2.37-.06-.26-.14-.52-.23-.79-.01-.03-.03-.05-.04-.08,0,0,0,0,0,0-.08-.04-.16-.08-.25-.12-.22-.06-.44-.11-.65-.13-.37.01-.72.07-1.05.16-.42.17-.79.4-1.11.69-.29.32-.53.7-.73,1.12-.09.27-.18.55-.24.86-.08.43-.36.66-.73.73-.03,0-.07-.02-.1-.01.71,3.58,1.32,7.12,1.81,10.61.23,1.65.43,3.29.61,4.91.45-.02.9-.05,1.33-.11.84-.11,1.63-.3,2.39-.55h0s0,0,.02,0c.09-.03.18-.07.26-.1.18-.07.35-.14.52-.22.37-.17.73-.36,1.07-.56.66-.4,1.28-.86,1.85-1.38.07-.07.14-.13.21-.2,0,0,0,0,0,0,.13-.14.26-.27.38-.41.21-.23.41-.48.6-.73.44-.58.83-1.21,1.18-1.89.17-.32.32-.66.47-1,.04-.09.1-.18.12-.28,0,0,0-.01,0-.02.06-.16.12-.33.17-.49.25-.76.46-1.56.61-2.4.15-.8.23-1.65.29-2.51,0-.03,0-.01,0-.03,0-.03,0-.06,0-.09,0-.08,0-.16,0-.24,0-.24,0-.49,0-.73,0-.41-.02-.83-.05-1.25-.06-.99-.18-2.01-.36-3.06Z"/>
    <path class="els-cube-cls-1" d="M39.07,223.21c.89.89,1.3,2.32.87,2.92-.99,1.41-1.89,2.92-2.69,4.53-1.21,2.42-2.13,4.94-2.87,7.79,3.77-5.54,8.34-10.25,13.62-13.97-.65-.29-1.34-.84-1.68-1.66-.38-.91-.83-1.82-1.35-2.72-.05-.07-.2-.33-.23-.37-.16-.24-.32-.48-.48-.72-.31-.44-.63-.87-.96-1.29-1.05-1.33-.69-2.58.11-2.82,3.03-.89,6.11-1.73,9.48-1.99,2.97-.23,6.2-.06,9.65,1.03,3.8,1.2,7.66,3.4,11.49,6.45,3.94,3.13,7.76,6.77,11.35,10.72l-3.97-7.87c-.48-.96-.41-1.81.08-2.17.52-.38,1.42.08,2.17.77,4.91,4.55,9.49,9.87,13.44,15.55-.17-2.35-.68-4.88-1.6-7.55-.29-.84-.03-1.51.48-1.69.57-.2,1.3.16,2,.83,2.43,2.33,4.84,4.72,7.21,7.16,8.49,8.73,16.57,18.14,24.08,27.99.53.7.71,1.45.61,2.01.54,1.41,1.08,2.81,1.59,4.22,1.97,5.41,3.71,10.78,5.23,16.11.29-.19.6-.36.91-.53-.1-.47-.09-.92.06-1.24.12-.27.24-.54.35-.82.02-.05.1-.27.1-.27.04-.1.07-.2.11-.3.19-.55.37-1.12.53-1.71.31-1.17.55-2.4.72-3.68.08-.64.15-1.29.2-1.96.01-.18.02-.36.03-.55,0-.02,0-.09,0-.14.01-.32.02-.64.03-.96.02-1.34-.03-2.73-.15-4.15-.11-1.29-.27-2.6-.48-3.94-.09-.57-.25-1.43-.33-1.86-.02-.08-.1-.45-.09-.41-.03-.14-.06-.28-.09-.42-.08-.35-.16-.7-.24-1.05-.65-2.71-1.52-5.49-2.59-8.28-.35-.92-.43-1.11-.79-1.96-.28-.66-.57-1.31-.87-1.96-.59-1.28-1.22-2.56-1.89-3.83-.67-1.27-1.39-2.54-2.14-3.8-.04-.06-.08-.13-.12-.19-.02-.03-.03-.06-.09-.15-.08-.13-.16-.26-.24-.38-.2-.32-.4-.64-.6-.96-.36-.57-.74-1.14-1.11-1.71-1.64-2.46-3.41-4.83-5.27-7.13-.06-.08-.08-.09-.09-.11-.02-.02-.03-.04-.1-.11-.1-.12-.19-.23-.29-.35-.24-.29-.49-.58-.73-.87-.44-.52-.89-1.03-1.34-1.53-.96-1.06-1.93-2.1-2.93-3.11-1.05-1.06-2.11-2.09-3.19-3.08-.16-.14-.31-.28-.47-.43-.02-.02-.03-.02-.06-.05-.27-.24-.55-.48-.82-.72-.49-.43-.99-.84-1.49-1.25-1.85-1.52-3.73-2.88-5.62-4.15-1.47,1.23-3.44,1.8-5.71,1.69-.9-.04-2-1.4-2.34-2.41-.42-1.23.23-1.77,1.06-1.73-.29-.01.05,0,.1,0,.1,0,.19,0,.29,0,.17,0,.33-.02.5-.03.37-.04.73-.1,1.08-.19.06-.01.33-.1.35-.1.12-.05.24-.09.36-.15.31-.14.61-.31.89-.5.25-.17.48-.35.7-.55.02-.01.08-.08.11-.11.02-.02.04-.04.04-.05.08-.1.17-.19.25-.29.38-.47.69-1.02.96-1.61.02-.04.02-.04.03-.06,0,0,0,0,0-.03.02-.07.05-.13.07-.2.04-.14.09-.28.13-.42.09-.33.16-.68.22-1.04.03-.22.06-.44.08-.66,0-.05.02-.22.02-.28.01-.36,0-.72-.01-1.1-.02-.46-.07-.93-.14-1.41-.03-.19-.06-.39-.09-.58-.02-.1-.04-.21-.06-.31,0-.01,0-.01,0-.04-.21-.93-.48-1.87-.82-2.83-.09-.24-.18-.48-.27-.72-.02-.05-.03-.07-.04-.1-.04-.09-.08-.19-.12-.28-.19-.45-.4-.89-.62-1.34-.12-.25-.26-.5-.4-.74-1.17.39-2.37.75-3.6,1.03-6.02,1.38-12.77,1.44-19.92.27-.76-.13-1.63-.97-2.12-1.87-.52-.96-.38-1.8.08-2.17.48-.39.68-.59,1.11-1.23.17-.25.32-.51.46-.79.08-.16.16-.32.23-.49.02-.05.04-.1.06-.15,0,0,.01-.04.04-.12.2-.63.38-1.27.49-1.98.06-.4.1-.82.14-1.24,0-.04,0-.07,0-.09,0-.02,0-.04,0-.08,0-.22,0-.44,0-.66-.01-.83-.08-1.7-.21-2.59-.03-.18-.05-.36-.09-.54,0-.06-.08-.42-.1-.49-.09-.39-.18-.78-.28-1.17-.2-.75-.46-1.5-.73-2.26-.71.62-1.42,1.24-2.14,1.84-4.38,3.61-9,6.91-13.84,9.9-.79.48-2.15-.44-2.88-1.77-1.62-2.96-2.65-6.03-3.02-8.82-.13.15-.27.31-.39.48-.31.41-.58.86-.81,1.34-.06.13-.12.25-.18.38,0,0-.07.2-.09.24-.09.25-.17.5-.25.77-.15.55-.27,1.14-.35,1.75-.03.26-.05.53-.07.81,0,.07-.01.24-.01.29,0,.17,0,.34,0,.52.01.7.07,1.42.17,2.16.14,1.03-.7,1.52-1.65,1.03-1.06-.55-2.12-1.06-3.17-1.5-.51-.22-1.02-.42-1.53-.61-.18-.07-.36-.13-.54-.2,0,0-.05-.02-.09-.03-.07-.02-.29-.1-.32-.11-.12-.04-.24-.08-.35-.12-2-.65-3.96-1.1-5.85-1.34-.44-.06-.88-.1-1.32-.14-.19-.02-.39-.03-.58-.04-.04,0-.33-.01-.37-.01-.82-.02-1.63,0-2.42.07-1.54.13-3.01.43-4.38.89-.03,0-.04.01-.04.01-.01,0-.04.01-.09.03-.09.03-.18.07-.26.1-.15.06-.3.12-.45.19-.32.14-.64.29-.94.45-.64.33-1.24.7-1.82,1.12-1.2.87-1.95,1.61-2.87,2.81-.89,1.16-1.64,2.48-2.25,3.92-.03.08-.07.16-.1.24-.02.04-.04.09-.04.1-.07.19-.14.39-.21.58-.12.34-.23.69-.33,1.05-.23.79-.42,1.6-.58,2.45-.16.84-.28,1.72-.36,2.61-.09,1.01-.11,1.31-.11,2.38,0,1.89.15,3.88.46,5.93.01.09-.02.14-.02.22.01.01.03.02.05.03,3.17,2.61,5.79,6,7.92,9.66,1.33,2.28,2.4,4.61,3.38,6.93,1.1-2.73,2.44-5.25,4.02-7.5.45-.65,1.49-.4,2.42.52Z"/>
    <path class="els-cube-cls-5" d="M116.09,280.78c-.02-.39-.13-.79-.33-1.22-.14-.41-.35-.81-.64-1.19-.27-.4-.58-.74-.93-1.02-.34-.34-.7-.59-1.07-.76-.24-.08-.48-.17-.71-.25-.45-.09-.83-.04-1.14.15l-.37.37c-.21.33-.29.75-.25,1.26.19,2.9.39,5.8.58,8.7l.16,2.44c.02.39.13.79.33,1.22.14.41.35.81.64,1.19.27.4.58.74.93,1.02.34.34.69.59,1.07.76.24.08.48.17.71.25.45.09.83.04,1.14-.15l.37-.37c.21-.33.29-.75.25-1.26-.19-2.9-.39-5.8-.58-8.7l-.16-2.44Z"/>
    <path class="els-cube-cls-5" d="M64.16,251.86c-.02-.39-.13-.79-.33-1.22-.14-.41-.35-.81-.64-1.19-.27-.4-.58-.74-.93-1.02-.34-.34-.7-.59-1.07-.76-.24-.08-.48-.17-.71-.25-.45-.09-.83-.04-1.14.15l-.37.37c-.21.33-.29.75-.25,1.26.19,2.9.39,5.8.58,8.7l.16,2.44c.02.39.13.79.33,1.22.14.41.35.81.64,1.19.27.4.58.74.93,1.02.34.34.69.59,1.07.76.24.08.48.17.71.25.45.09.83.04,1.14-.15l.37-.37c.21-.33.29-.75.25-1.26-.19-2.9-.39-5.8-.58-8.7l-.16-2.44Z"/>
    <path class="els-cube-cls-5" d="M157.17,299.03c-.72-2.49-1.97-5.24-3.82-7.55-1.97-2.47-4.35-4.35-6.71-5.44-1.65-.76-3.15-1.1-4.51-1.14,2.16-7.53,1.44-17.39-2.17-27.81-3.88-11.17-10.98-22.49-19.71-31.8-4.05-4.31-8.44-8.13-12.92-11.27,1.34-2.82,1.32-6.82-.09-11.22-.85-2.62-2.14-5.25-3.78-7.8-.76-1.18-1.89-1.49-2.56-1.25-.55.2-1.18.42-1.87.62-.7.21-1.41.4-2.13.58-1.44.35-2.92.62-4.44.82-1.52.2-3.08.32-4.67.36-.8.02-1.6.03-2.41.01-.87-.02-1.35-.04-2.22-.1-.43-.03-.87-.08-1.3-.12,1.75-4.43.95-11.12-2.53-17.79-.64-1.23-2.2-2.38-2.88-1.77-4.24,3.79-8.73,7.27-13.44,10.43-.81.55-1.65,1.06-2.48,1.59-1.21-3.06-1.53-5.9-.92-8.22.34-1.29-1.63-3.77-2.85-3.45-4.36,1.15-6.88,5.31-6.66,11.12-7.3-3.42-14.38-4.49-19.96-2.95-6.19,1.7-10.43,6.47-12.11,13.45-.91,3.76-1.05,8.16-.38,12.88-1.77-.83-3.48-1.18-4.92-.92-2.31.42-3.89,2.11-4.81,4.31-2.1,5.03-1.6,12.1.44,19.46,1,3.61,2.38,7.36,4.07,11.05,1.69,3.7,3.87,7.41,6.68,10.64,2.76,3.18,6.11,5.71,9.2,6.61.83.24,1.64.32,2.39.27-.04.26-.1.49-.12.76-.25,2.87.22,6.15,1.74,9.68,1.47,3.4,3.98,6.43,6.75,8.86,2.65,2.33,5.45,4,8.2,5.7,1.11.68,2.21,1.35,3.32,2.04l14.71,9c7.52,4.56,15.04,9.02,22.56,13.24,13.43,7.53,26.88,14.32,40.11,19.52,1.65.65,3.29,1.27,4.93,1.86,1.55.56,3.13,1.18,4.64,1.54,1.41.34,2.73.4,3.81,0,1.1-.41,1.77-1.37,2.17-2.59.75-2.3.36-5.59.13-8.5-.03-.35-.07-.71-.1-1.06,7.33.37,12.55-3.77,14.2-10.92.82-3.56.8-8.03-.56-12.74ZM153.71,310.6c-.06.17-.11.33-.17.49,0,0,0,.01,0,.02-.02.1-.08.2-.12.28-.15.34-.3.68-.47,1-.35.67-.74,1.31-1.18,1.89-.19.25-.39.5-.6.73-.12.14-.25.28-.38.41,0,0,0,0,0,0-.07.07-.14.14-.21.2-.57.52-1.19.99-1.85,1.38-.34.21-.7.39-1.07.56-.17.08-.34.15-.52.22-.09.04-.18.07-.26.1-.02,0,0,0-.02,0h0c-.76.25-1.55.44-2.39.55-.43.06-.88.09-1.33.11-.18-1.63-.38-3.26-.61-4.91-.49-3.49-1.1-7.03-1.81-10.61.03,0,.07.02.1.01.37-.08.66-.3.73-.73.05-.3.14-.58.24-.86.19-.43.43-.8.73-1.12.33-.29.7-.53,1.11-.69.33-.1.68-.15,1.05-.16.21.02.43.06.65.13.08.04.16.07.25.12,0,0,0,0,0,0,.01.03.03.05.04.08.09.27.17.53.23.79.15.83.21,1.62.2,2.37-.05.76-.19,1.46-.41,2.09-.16.37-.34.73-.56,1.04-.11.15-.17.36-.15.6-.03.23,0,.49.1.78.08.28.2.54.38.81.15.27.33.52.55.74.44.44.96.8,1.41.87.44.07.79-.04,1.01-.35.39-.55.68-1.2.91-1.9.19-.58.31-1.23.36-1.92.06-.83.07-1.69-.04-2.61-.06-.54-.17-1.1-.29-1.66-.07-.36-.17-.72-.31-1.09-.13-.35-.27-.72-.46-1.07-.04-.08-.09-.17-.14-.25-.15-.25-.3-.52-.47-.77-.06-.08-.11-.16-.17-.23-.18-.23-.37-.47-.57-.68-.06-.07-.12-.13-.19-.19-.21-.2-.43-.4-.64-.57-.29-.24-.6-.41-.89-.59-.15-.09-.3-.17-.45-.23-.31-.13-.62-.24-.91-.32-.15-.04-.3-.08-.45-.1-.42-.07-.83-.08-1.22-.05-.27.02-.53.06-.77.12-.59.15-1.15.37-1.62.71-.24.17-.47.37-.67.59-.4-1.73-.82-3.46-1.28-5.21.41-.36.82-.73,1.27-1.03.61-.42,1.27-.91,2.04-1.08-.36.08,0,0,.06-.02.1-.03.21-.06.31-.09.18-.05.35-.09.53-.12.44-.08.89-.13,1.36-.14.08,0,.16,0,.24,0,.01,0,.01,0,.02,0,0,0,0,0,.02,0,.19.02.38.04.58.07.47.07.95.18,1.44.33.03,0,.07.03.12.05-.03-.02-.04-.02-.1-.05.08.04.17.06.25.09.25.1.5.2.75.32.21.1.42.2.63.31.13.07.25.14.38.21.07.04.56.38.26.15-.31-.23.09.06.13.09.12.08.25.17.37.26.21.15.41.3.61.46.12.1.24.19.36.29.04.03.08.07.12.1.19.17.16.14-.09-.09.19.1.52.49.69.67.19.19.37.39.55.6.04.04.07.08.11.12.17.2.14.17-.07-.09.09.07.23.3.31.4.17.23.33.46.49.69.09.14.18.28.28.42.01.02,0,0,.02.03,0,.01,0,0,.01.02.3.53.58,1.06.82,1.6.07.14.13.29.19.43.12.32.24.63.34.95.18.52.33,1.04.46,1.55.07.27.13.54.19.8,0,.01,0,.03.01.04,0,0,0,0,0,0,.05.14.06.3.08.43.18,1.05.3,2.07.36,3.06.03.42.04.84.05,1.25,0,.25,0,.49,0,.73,0,.08,0,.16,0,.24,0,.03,0,.06,0,.09,0,.02,0,0,0,.03-.06.86-.15,1.71-.29,2.51-.15.84-.36,1.64-.61,2.4ZM138.71,330.85s-.03,0-.1,0c-.14.02-.27.05-.42.07-.1.01-.19.02-.29.02-.01,0-.18,0-.25,0-.56-.05-1.15-.16-1.75-.33-.29-.08-.57-.16-.86-.26-.17-.05-.35-.11-.52-.17-.02,0-.22-.07-.3-.1-.77-.27-1.55-.55-2.32-.84-6.64-2.44-13.36-5.32-20.11-8.52,1.76-.71,3.08-2.11,3.83-4.1,1.24-3.29.39-8.21-1.93-13-1.33-2.75-3.16-5.42-5.27-7.75-.78-.86-1.59-.98-2.17-.77,0,0-.07.03-.11.04-.04.01-.12.04-.11.04-.17.05-.33.11-.5.16-.31.09-.63.18-.95.26-.67.17-1.35.3-2.05.41-1.35.21-2.75.3-4.2.28-.2,0-.39,0-.59-.01,0,0-.08,0-.13,0-.05,0-.14,0-.14,0-.4-.02-.8-.05-1.2-.09-.75-.07-1.51-.17-2.28-.3-1.57-.26-3.18-.63-4.82-1.12-.37-.11-.74-.23-1.12-.35-.22-.07-.43-.14-.65-.22-.12-.04-.25-.09-.37-.13-.82-.3-1.64-.62-2.46-.97-1.71-.73-3.44-1.58-5.17-2.53-.85-.47-1.7-.97-2.56-1.49,0,0-.1-.06-.15-.09-.06-.04-.15-.09-.15-.09-.23-.15-.46-.29-.69-.44-.43-.27-.85-.56-1.27-.84-1.73-1.17-3.45-2.44-5.14-3.79-1.95-1.56-3.53-2.94-5.3-4.62-1.84-1.75-3.63-3.61-5.36-5.54-.56-.62-1.33-.97-1.83-.89-2.87.47-4.66,2.83-4.81,6.3-.13,2.92.95,6.41,2.89,9.76-.39-.24-.78-.47-1.17-.71-1.61-.99-3.21-1.98-4.82-2.97-.78-.48-1.57-.97-2.35-1.45-.21-.13-.41-.25-.62-.38-.02,0-.02,0-.03-.02-.35-.22-.7-.44-1.04-.66-1.28-.82-2.56-1.68-3.81-2.66-.31-.24-.62-.49-.92-.74-.14-.12-.27-.23-.41-.35-.05-.04-.07-.06-.1-.08-.03-.03-.05-.05-.1-.1-.58-.55-1.15-1.11-1.69-1.72-.12-.14-.24-.28-.36-.42-.04-.04-.08-.1-.1-.12-.27-.36-.54-.72-.8-1.09-.09-.13-.17-.26-.26-.38,0-.01-.17-.28-.22-.36-.21-.37-.41-.74-.6-1.12-.15-.3-.29-.61-.41-.91-.03-.08-.14-.35-.14-.37-.06-.17-.12-.34-.18-.51-.12-.37-.23-.74-.33-1.11-.04-.13-.07-.27-.1-.4-.03-.13-.06-.25-.09-.38,0-.03,0-.03-.01-.07-.11-.65-.2-1.29-.24-1.92-.02-.34-.03-.68-.03-1,0-.12,0-.24,0-.36,0,0,.04-.5.05-.55.14-1.4.47-2.67.89-3.85.36-1.02.89-2.13,1.39-3.19.33-.7.08-1.97-.87-2.92-.81-.8-1.93-1.2-2.34-.59-.85-.53-1.91-.6-1.96.33-.01.29-.04.56-.1.82-.03.13-.07.25-.1.37,0,.02,0,.03-.01.05,0,.01-.01.02-.02.04-.1.17-.18.34-.29.5-.07.09-.14.18-.21.26.21-.26-.11.09-.16.13-.16.12-.34.23-.52.32-.05.03-.1.05-.15.07.06-.03-.17.06-.21.07-.23.06-.47.1-.72.12-.13.01-.25.01-.38.02-.04,0-.04,0-.05,0-.02,0-.02,0-.06-.01-.27-.03-.54-.07-.83-.13-.14-.03-.28-.07-.43-.11-.03,0-.15-.05-.23-.08-.6-.24-1.21-.53-1.82-.9-.09-.06-.26-.17-.28-.19-.11-.08-.22-.15-.34-.23-.34-.24-.67-.5-1-.77-.17-.14-.33-.28-.49-.42-.04-.04-.07-.06-.09-.08-.03-.03-.06-.06-.11-.1-.32-.31-.64-.61-.95-.94-.31-.32-.62-.66-.92-1-.14-.16-.28-.32-.41-.48-.03-.04-.06-.07-.07-.09-.62-.79-1.22-1.6-1.77-2.43-.22-.32-.42-.65-.63-.98-.04-.06-.06-.1-.08-.13-.02-.03-.04-.07-.08-.14-.12-.2-.23-.4-.35-.6-.46-.8-.88-1.62-1.29-2.43-.37-.75-.72-1.5-1.05-2.25-.18-.41-.36-.82-.53-1.23,0-.01-.12-.29-.15-.37-.09-.22-.17-.43-.26-.65-.66-1.67-1.25-3.34-1.77-4.99-.51-1.62-.94-3.23-1.29-4.8-.04-.16-.07-.33-.11-.49,0-.03-.08-.39-.08-.4-.08-.41-.15-.81-.21-1.21-.13-.8-.24-1.59-.31-2.36-.32-3.15-.24-5.44.42-7.99.07-.26.14-.52.22-.77.04-.14.09-.28.14-.42,0-.02.04-.11.07-.17.19-.47.41-.92.66-1.33.24-.39.51-.76.8-1.08.02-.02.17-.16.17-.16.06-.05.12-.11.18-.16.21-.17.43-.33.67-.47.17-.1.35-.17.52-.26.04-.02.04-.02.05-.03.02,0,.01,0,.05-.01.12-.03.23-.07.35-.09.22-.05.44-.08.68-.1.11,0,.22,0,.32-.02.06,0,.07,0,.09,0,.06,0,.11,0,.17.01.28.03.57.08.87.15.13.03.26.07.39.11.03,0,.08.03.13.05.3.12.6.24.9.4.16.08.32.17.48.25.09.05.18.1.27.16.72.48,1.42,1,2.12,1.59.03.02.03.02.05.04.2.18.4.37.59.56.36.35.71.71,1.05,1.09.27.29.53.6.79.9.06.08.22.27.24.3.18.23.36.46.54.7.59.8,1.14,1.62,1.66,2.46.04.06.06.1.09.14.02.04.04.08.08.15.16.27.31.54.46.81.23.41.45.82.66,1.22.47.89.9,1.79,1.31,2.69.41.9.81,1.81,1.19,2.71.21.49.41.97.6,1.46.03.06.04.09.05.13.02.04.03.08.06.16.11.28.22.55.34.83.1.25.23.51.38.76.41-1.39.88-2.74,1.4-4.03-.99-2.32-2.06-4.65-3.38-6.93-2.12-3.66-4.75-7.05-7.92-9.66-.01-.01-.03-.02-.05-.03,0-.08.03-.13.02-.22-.31-2.05-.46-4.03-.46-5.93,0-1.07.02-1.37.11-2.38.08-.9.2-1.77.36-2.61.16-.84.35-1.66.58-2.45.1-.36.22-.7.33-1.05.07-.2.14-.39.21-.58,0-.01.02-.06.04-.1.03-.08.07-.16.1-.24.61-1.44,1.36-2.76,2.25-3.92.92-1.2,1.66-1.94,2.87-2.81.58-.42,1.18-.79,1.82-1.12.31-.16.62-.31.94-.45.15-.06.3-.13.45-.19.09-.03.18-.07.26-.1.05-.02.07-.03.09-.03,0,0,.01,0,.04-.01,1.36-.47,2.83-.76,4.38-.89.79-.07,1.59-.09,2.42-.07.05,0,.34.01.37.01.19.01.39.02.58.04.44.03.88.08,1.32.14,1.88.24,3.84.69,5.85,1.34.12.04.24.08.35.12.03,0,.25.09.32.11.04.02.09.03.09.03.18.07.36.13.54.2.51.19,1.02.4,1.53.61,1.05.45,2.11.95,3.17,1.5.94.49,1.78,0,1.65-1.03-.1-.74-.16-1.46-.17-2.16,0-.17,0-.35,0-.52,0-.05,0-.21.01-.29.02-.27.04-.54.07-.81.08-.61.19-1.2.35-1.75.07-.26.16-.52.25-.77.02-.04.09-.23.09-.24.06-.13.12-.26.18-.38.24-.48.51-.93.81-1.34.12-.17.26-.32.39-.48.38,2.79,1.4,5.85,3.02,8.82.73,1.33,2.09,2.25,2.88,1.77,4.84-2.99,9.46-6.29,13.84-9.9.73-.6,1.43-1.23,2.14-1.84.28.76.53,1.51.73,2.26.11.39.2.78.28,1.17.01.07.09.44.1.49.03.18.06.36.09.54.13.89.2,1.76.21,2.59,0,.22,0,.44,0,.66,0,.04,0,.06,0,.08,0,.02,0,.05,0,.09-.04.42-.07.83-.14,1.24-.11.7-.29,1.34-.49,1.98-.03.08-.04.11-.04.12-.02.05-.04.1-.06.15-.07.17-.15.33-.23.49-.14.28-.3.54-.46.79-.43.64-.63.84-1.11,1.23-.46.37-.6,1.21-.08,2.17.49.9,1.36,1.75,2.12,1.87,7.15,1.17,13.89,1.1,19.92-.27,1.24-.28,2.43-.64,3.6-1.03.13.25.27.49.4.74.22.44.43.89.62,1.34.04.09.08.19.12.28.01.03.02.05.04.1.09.24.18.48.27.72.34.96.61,1.9.82,2.83,0,.02,0,.02,0,.04.02.1.04.21.06.31.03.19.06.39.09.58.07.48.11.95.14,1.41.02.37.02.74.01,1.1,0,.06-.02.23-.02.28-.02.23-.05.45-.08.66-.05.36-.13.7-.22,1.04-.04.14-.08.28-.13.42-.02.07-.05.14-.07.2-.01.03,0,.03,0,.03,0,.02-.01.02-.03.06-.27.59-.58,1.13-.96,1.61-.08.1-.17.2-.25.29,0,0-.02.02-.04.05-.03.03-.1.1-.11.11-.22.2-.45.38-.7.55-.28.19-.58.36-.89.5-.12.05-.24.1-.36.15,0,0,0,0-.06.03.02,0,.04-.02.06-.03-.02,0-.3.09-.35.1-.35.09-.71.15-1.08.19-.16.02-.33.03-.5.03-.1,0-.19,0-.29,0-.05,0-.39,0-.1,0-.84-.04-1.48.5-1.06,1.73.35,1.01,1.44,2.37,2.34,2.41,2.27.11,4.24-.46,5.71-1.69,1.89,1.26,3.77,2.63,5.62,4.15.5.41,1,.83,1.49,1.25.27.24.55.48.82.72.03.03.04.03.06.05.16.14.31.28.47.43,1.08.99,2.15,2.02,3.19,3.08.99,1.01,1.97,2.05,2.93,3.11.45.5.9,1.01,1.34,1.53.25.29.49.58.73.87.1.12.19.23.29.35.06.08.08.09.1.11.01.02.03.03.09.11,1.86,2.3,3.63,4.67,5.27,7.13.38.57.75,1.13,1.11,1.71.2.32.4.64.6.96.08.13.16.26.24.38.06.09.07.12.09.15.04.07.08.13.12.19.75,1.26,1.46,2.52,2.14,3.8.67,1.27,1.3,2.55,1.89,3.83.3.65.59,1.31.87,1.96.36.85.44,1.04.79,1.96,1.07,2.8,1.94,5.57,2.59,8.28.09.35.17.7.24,1.05.03.14.06.28.09.42,0-.04.07.33.09.41.09.42.24,1.28.33,1.86.22,1.34.38,2.65.48,3.94.12,1.42.17,2.8.15,4.15,0,.32-.01.65-.03.96,0,.05,0,.12,0,.14-.01.18-.02.36-.03.55-.05.66-.11,1.32-.2,1.96-.17,1.28-.41,2.51-.72,3.68-.16.58-.33,1.15-.53,1.71-.03.1-.07.2-.11.3,0,0-.08.21-.1.27-.11.28-.23.55-.35.82-.15.33-.16.77-.06,1.24-.31.16-.61.34-.91.53-1.52-5.33-3.26-10.7-5.23-16.11-.51-1.4-1.05-2.81-1.59-4.22-.05.3-.18.54-.38.68-.62.45-1.79-.24-2.56-1.25-.27-.36-.55-.7-.82-1.06,2.76,7.1,5.15,14.16,7.14,21.13.99,3.48,1.89,6.94,2.68,10.37.81,3.48,1.42,6.49,2.01,9.88,1.18,6.73,1.99,13.36,2.27,19.69.03.59.03,1.18.03,1.75,0,.05,0,.08,0,.11,0,.03,0,.05,0,.1,0,.11-.02.22-.03.33-.03.35-.08.69-.15,1.02-.05.26-.12.5-.2.73-.01.02-.02.05-.03.06-.06.12-.12.24-.19.35-.07.11-.15.21-.22.31,0,.01-.02.03-.04.05-.18.16-.39.29-.61.4-.05.03-.06.03-.07.05ZM61.74,292.87c-.06-.05-.19-.16-.25-.21-.31-.28-.62-.58-.92-.89-.3-.31-.59-.63-.87-.96-.06-.07-.11-.13-.17-.2-.02-.03-.03-.04-.06-.08-.16-.2-.31-.4-.46-.61-.26-.35-.51-.71-.75-1.07-.12-.18-.24-.36-.35-.55,0,0,0,0,0,0-.06-.1-.12-.2-.18-.3-.21-.37-.41-.75-.6-1.13-.09-.19-.18-.38-.27-.57-.04-.09-.09-.19-.13-.28,0-.02-.05-.12-.08-.2-.03-.09-.13-.33-.15-.39-.07-.19-.13-.38-.2-.56-.13-.41-.25-.81-.34-1.2-.02-.09-.04-.17-.06-.26,0-.01,0,0,0-.02-.02-.18-.06-.36-.08-.54-.05-.38-.08-.76-.08-1.12,0-.13,0-.26,0-.39,0-.02.01-.2.02-.27.04-.34.09-.66.16-.97.03-.14.07-.28.11-.42.01-.04.07-.22.09-.28.03-.05.1-.22.12-.26.07-.14.14-.28.22-.41.17-.28.37-.53.57-.77,0,0,0,0,.01-.02.05-.04.09-.09.14-.13.11-.09.23-.18.35-.26.22-.15.46-.27.7-.38,6.21,6.74,13.13,12.37,20.1,16.44,7.16,4.18,14.34,6.53,20.66,6.84,3.2.15,6.13-.2,8.83-1.02.32.41.64.83.93,1.26.3.43.59.87.86,1.32.05.09.26.45.29.5.14.25.28.51.42.77.25.48.49.97.7,1.45.09.2.17.39.26.59.02.05.04.1.05.13.06.16.12.32.18.48.17.48.33.96.47,1.44.06.22.12.44.18.66.03.13.06.25.09.38.01.06.03.12.04.17.17.93.27,1.83.26,2.68,0,.03,0,.13,0,.2,0,.03,0,.05,0,.05-.02.21-.04.41-.07.61-.06.4-.14.78-.24,1.15-.04.16-.1.31-.15.47,0,.02,0,.02,0,.03-.03.08-.07.16-.1.24-.15.32-.32.63-.51.91-.18.27-.38.51-.59.74,0,0-.02.02-.04.04-.04.03-.09.08-.11.1-.14.12-.28.24-.43.35-.28.2-.59.38-.91.53-.08.04-.15.07-.23.1-.02,0-.1.04-.15.05-.14.04-.28.08-.42.12-.38.09-.78.15-1.2.17-.17,0-.35,0-.52,0-.02,0-.05,0-.06,0-.15-.02-.3-.03-.45-.05-.48-.06-.86.14-1.05.52-4.07-2.04-8.14-4.16-12.22-6.38-10.33-5.62-20.67-11.75-31-18.04-.12-.1-.24-.19-.36-.29Z"/>
    <path class="els-cube-cls-5" d="M129.27,264.14c-7.51-9.85-15.59-19.26-24.08-27.99-2.37-2.44-4.78-4.83-7.21-7.16-.7-.67-1.43-1.03-2-.83-.51.18-.76.85-.48,1.69.92,2.66,1.43,5.2,1.6,7.55-3.95-5.68-8.53-11-13.44-15.55-.74-.69-1.65-1.15-2.17-.77-.49.36-.57,1.21-.08,2.17l3.97,7.87c-3.59-3.95-7.41-7.59-11.35-10.72-3.83-3.05-7.69-5.24-11.49-6.45-3.45-1.09-6.68-1.27-9.65-1.03-3.37.26-6.45,1.1-9.48,1.99-.8.24-1.16,1.48-.11,2.82.33.42.65.85.96,1.29.16.24.32.48.48.72.03.04.18.3.23.37.52.9.97,1.8,1.35,2.72.34.82,1.03,1.37,1.68,1.66-5.29,3.72-9.85,8.43-13.62,13.97.74-2.84,1.66-5.36,2.87-7.79.8-1.61,1.7-3.12,2.69-4.53.43-.61.02-2.04-.87-2.92-.93-.92-1.96-1.17-2.42-.52-1.58,2.25-2.92,4.77-4.02,7.5-.52,1.29-.99,2.64-1.4,4.03-.33,1.12-.64,2.26-.89,3.44-.44-1.06-.92-2.12-1.52-3.17-.43-.75-.89-1.49-1.39-2.21-.5-.71-1.05-1.39-1.61-2.04-.4-.46-.82-.89-1.26-1.29-.57-.52-1.13-1.01-1.73-1.43-.6-.43-1.21-.81-1.82-1.13-.6-.32-1.18-.53-1.76-.72-.43-.14-.86-.24-1.26-.27-.52-.04-1.02-.06-1.47.06-.45.12-.87.28-1.2.57-.42.37-.74.8-.96,1.37-.39,1-.48,2.26-.26,3.65.12.74.28,1.51.53,2.3.26.83.61,1.68.98,2.52.6,1.36,1.35,2.71,2.13,4.04.29.49.59.98.88,1.47.29.49.92.98,1.33,1.18.44.22.96.27,1.23.06.29-.21.48-.57.41-1.09l-.11-.54c-.11-.36-.29-.71-.53-1.05.09.15.18.29.27.44-1.04-1.72-2.04-3.47-2.79-5.24-.28-.73-.51-1.44-.67-2.15-.09-.53-.14-1.04-.14-1.53.03-.33.09-.63.17-.92.1-.22.23-.41.37-.58.14-.12.3-.21.46-.29.23-.06.48-.1.74-.1.32.04.64.1.98.21.45.18.91.4,1.38.67.48.32.96.67,1.42,1.07.41.39.81.8,1.19,1.24.5.63.97,1.29,1.39,1.97.57.97,1.05,1.95,1.47,2.94.52,1.31.93,2.6,1.23,3.87.12.49.55,1.15.93,1.54.02.02.04.03.06.05-.2,1.76-.34,3.55-.41,5.4-.06,1.75,2.87,3.9,3.46,2.6,2.12-4.67,4.69-8.91,7.69-12.67,3.01-3.78,6.23-6.86,10.09-9.66,2.16-1.57,4.45-2.96,6.85-4.19.61-.31.51-1.46-.07-2.43-.65-1.08-1.58-1.63-2.38-1.63-2.09,0-4.19,0-6.28,0-.34-.65-.72-1.29-1.12-1.92,2.03-.57,4.09-1.08,6.28-1.37,2.84-.37,5.44-.39,8.74.42.36.09.72.18,1.08.29.21.06.42.13.64.2.09.03.18.06.27.09.02,0,.01,0,.02,0,.02,0,.01,0,.05.02.8.3,1.62.64,2.43,1.03,1.84.89,3.3,1.81,5.14,3.18.91.67,1.8,1.39,2.69,2.13.44.37.89.75,1.33,1.13.19.16.38.33.57.5.08.07.15.13.23.2.02.02.12.11.16.14,1.63,1.48,3.23,3.03,4.79,4.64,1.74,1.8,3.43,3.67,5.05,5.61.67.8,1.41,1.72,2.2,2.74.79,1.02,1.56,2.06,2.32,3.1,1.59,2.21,3.86,1.48,2.64-.93l-5.68-11.27c3.48,3.92,6.6,8.13,9.46,12.77.94,1.52,2.8,1.81,2.95.63.35-2.66.19-5.65-.48-8.82,2.97,2.96,5.92,5.96,8.79,9.08,2.02,2.19,4.02,4.42,5.98,6.68,1,1.15,1.99,2.3,2.97,3.47.46.55.92,1.1,1.38,1.65.55.66.78.94,1.32,1.6,1.88,2.3,3.71,4.63,5.52,6.98.27.35.55.7.82,1.06.77,1.01,1.94,1.7,2.56,1.25.2-.14.32-.39.38-.68.1-.56-.07-1.31-.61-2.01Z"/>
    <path class="els-cube-cls-1" d="M498.73,195.7l-120.06-69.99c-.95-.56-1.86-.75-2.66-.75-1.23,0-2.2.45-2.69.73-.8.46-2.68,1.84-2.68,4.63v149.02c0,1.89,1.02,3.66,2.65,4.62l120.06,69.99c2.4,1.4,4.54.48,5.35.02.8-.46,2.68-1.84,2.68-4.63v-149.02c0-1.89-1.02-3.66-2.65-4.62ZM471.51,268.82l-20.33,48.13c-.41,1-1.16,1.52-2.22,1.56-1.07.04-2.19-.25-3.36-.85-1.17-.68-2.32-1.68-3.46-3.03-1.14-1.34-2.01-2.85-2.63-4.51l-14.68-41.8-14.74,24.81c-.62.95-1.5,1.44-2.63,1.47-1.14.03-2.29-.29-3.46-.96-1.1-.7-2.2-1.7-3.3-2.99-1.1-1.29-1.86-2.67-2.27-4.15l-20.34-71.61c-.21-.87-.31-1.62-.31-2.24,0-2.06.74-3.27,2.22-3.62,1.48-.35,3.01-.07,4.59.84,1.31.76,2.53,1.81,3.66,3.15,1.14,1.34,1.91,2.79,2.32,4.33l15.39,55.54,13.41-24.46c.55-.92,1.34-1.45,2.37-1.57,1.03-.13,2.2.22,3.51,1.05,1.31.69,2.48,1.69,3.51,3.01,1.03,1.32,1.79,2.74,2.27,4.25l12.7,39.18,15.27-37.48c.41-1.07,1.2-1.61,2.38-1.62,1.17-.01,2.41.36,3.72,1.11,1.58.91,3.1,2.39,4.54,4.43,1.44,2.04,2.17,4.09,2.17,6.15,0,.62-.1,1.25-.31,1.88Z"/>
    <path class="els-cube-cls-5" d="M504.81,185.29l-120.06-69.99c-5.45-3.18-11.96-3.19-17.42-.05-5.46,3.14-8.73,8.78-8.73,15.08v149.02c0,6.16,3.31,11.92,8.63,15.03l120.06,69.99c2.74,1.6,5.75,2.39,8.76,2.39s5.95-.78,8.66-2.34c5.46-3.14,8.73-8.78,8.73-15.08v-149.02c0-6.16-3.31-11.92-8.63-15.03ZM493.36,353.94l-120.06-69.99c-1.64-.96-2.65-2.72-2.65-4.62v-149.02c0-2.79,1.88-4.17,2.68-4.63.49-.28,1.46-.73,2.69-.73.8,0,1.71.19,2.66.75l120.06,69.99c1.64.96,2.65,2.72,2.65,4.62v149.02c0,2.79-1.88,4.17-2.68,4.63-.81.46-2.95,1.39-5.35-.02Z"/>
    <path class="els-cube-cls-5" d="M469.65,260.78c-1.44-2.04-2.96-3.52-4.54-4.43-1.31-.76-2.55-1.13-3.72-1.11-1.17.01-1.96.55-2.38,1.62l-15.27,37.48-12.7-39.18c-.48-1.52-1.24-2.94-2.27-4.25-1.03-1.32-2.21-2.32-3.51-3.01-1.31-.82-2.48-1.17-3.51-1.05-1.03.13-1.82.65-2.37,1.57l-13.41,24.46-15.39-55.54c-.41-1.54-1.19-2.99-2.32-4.33-1.13-1.34-2.36-2.39-3.66-3.15-1.58-.91-3.11-1.19-4.59-.84-1.48.35-2.22,1.56-2.22,3.62,0,.62.1,1.37.31,2.24l20.34,71.61c.41,1.48,1.17,2.86,2.27,4.15,1.1,1.29,2.2,2.29,3.3,2.99,1.17.68,2.32,1,3.46.96,1.13-.03,2.01-.52,2.63-1.47l14.74-24.81,14.68,41.8c.62,1.67,1.5,3.17,2.63,4.51,1.13,1.34,2.29,2.35,3.46,3.03,1.17.61,2.29.89,3.36.85,1.06-.04,1.81-.56,2.22-1.56l20.33-48.13c.21-.64.31-1.27.31-1.88,0-2.06-.72-4.12-2.17-6.15Z"/>
  </g>
</svg>